<?xml version="1.0" standalone="no"?>
<!DOCTYPE svg PUBLIC "-//W3C//DTD SVG 20010904//EN"
 "http://www.w3.org/TR/2001/REC-SVG-20010904/DTD/svg10.dtd">
<svg version="1.0" xmlns="http://www.w3.org/2000/svg"
 width="2400.000000pt" height="2400.000000pt" viewBox="0 0 2400.000000 2400.000000"
 preserveAspectRatio="xMidYMid meet">

<g transform="translate(0.000000,2400.000000) scale(0.100000,-0.100000)"
fill="#000000" stroke="none">
<path d="M9528 17981 c-95 -31 -177 -103 -233 -206 -15 -27 -45 -79 -65 -115
-21 -36 -46 -83 -57 -105 -11 -22 -44 -83 -73 -135 -66 -120 -160 -293 -213
-390 -22 -41 -55 -100 -73 -131 -19 -31 -34 -60 -34 -64 0 -4 -22 -44 -48 -89
-27 -45 -77 -135 -112 -201 -34 -66 -84 -158 -110 -205 -26 -47 -94 -170 -150
-275 -57 -104 -124 -228 -150 -275 -26 -47 -67 -121 -90 -165 -24 -44 -53 -98
-65 -120 -12 -22 -41 -76 -65 -120 -74 -137 -269 -494 -348 -635 -41 -74 -119
-216 -172 -315 -101 -188 -166 -305 -269 -489 -33 -60 -61 -111 -61 -113 0 -2
-33 -63 -74 -136 -40 -73 -117 -213 -171 -312 -132 -244 -190 -349 -241 -442
-15 -27 -37 -66 -49 -88 -128 -236 -244 -449 -320 -585 -51 -91 -125 -228
-165 -305 -41 -77 -89 -165 -107 -195 -18 -30 -33 -58 -33 -62 0 -3 -17 -37
-38 -75 -22 -37 -59 -106 -84 -153 -52 -97 -151 -278 -196 -360 -64 -117 -366
-669 -402 -735 -20 -38 -68 -124 -105 -190 -37 -66 -86 -156 -109 -200 -89
-167 -130 -241 -153 -277 -13 -21 -23 -40 -23 -42 0 -3 -14 -29 -31 -58 -29
-48 -152 -275 -274 -503 -26 -49 -68 -125 -91 -167 -24 -43 -44 -79 -44 -81 0
-2 -27 -52 -60 -111 -33 -59 -60 -112 -60 -117 0 -14 2081 -12 2156 2 183 34
357 201 503 484 47 92 51 98 235 425 76 135 145 250 152 256 10 8 27 6 66 -7
29 -10 63 -18 75 -19 12 0 24 -4 27 -9 3 -5 21 -12 40 -15 19 -4 36 -11 38
-17 2 -6 15 -12 30 -12 14 -1 24 -4 22 -6 -11 -12 156 -58 326 -92 264 -51
663 -27 999 62 89 23 121 24 121 5 0 -30 -82 -172 -415 -721 -219 -360 -211
-345 -188 -346 10 0 344 0 743 1 766 1 883 6 1082 50 126 28 221 62 363 131
292 141 506 342 731 684 50 77 106 165 123 195 18 30 52 87 77 125 24 39 56
90 69 115 14 25 55 90 90 145 36 55 84 133 107 172 31 52 49 73 63 73 23 0
109 -126 295 -430 305 -500 400 -628 600 -813 254 -235 536 -368 900 -423 99
-16 217 -19 850 -24 404 -3 756 -4 782 -2 l48 3 -22 42 c-11 23 -62 112 -113
197 -51 85 -125 211 -165 280 -40 69 -81 137 -91 152 -10 15 -19 29 -19 32 0
3 -30 54 -67 113 -36 59 -74 122 -83 139 -9 17 -26 44 -38 59 -12 14 -24 36
-28 48 -4 12 -22 43 -40 68 -19 26 -34 50 -34 54 0 10 -71 126 -91 150 -10 11
-26 40 -37 65 -11 25 -27 51 -36 59 -9 7 -25 32 -36 55 -11 22 -38 70 -60 106
-22 36 -49 83 -60 105 -11 22 -39 69 -61 105 -23 36 -131 216 -241 400 -111
184 -238 396 -283 470 -45 74 -127 212 -182 305 -56 94 -139 233 -185 310
-109 180 -234 394 -248 427 -11 23 -2 41 100 214 62 104 141 234 175 289 153
247 195 316 245 400 30 50 137 223 238 385 102 162 214 345 250 405 36 61 82
135 102 165 20 30 82 129 137 220 116 192 156 258 196 321 15 25 69 114 120
197 51 83 139 227 196 319 188 302 227 366 316 518 49 83 127 213 173 290 47
77 118 194 158 260 39 66 97 161 128 210 30 50 71 118 91 153 20 34 104 172
187 305 82 133 175 285 205 337 54 94 132 223 268 442 61 100 105 176 105 185
0 9 -1597 1 -1675 -7 -137 -16 -348 -72 -466 -124 -219 -97 -385 -213 -554
-387 -151 -156 -217 -254 -575 -854 -112 -187 -266 -443 -343 -570 -77 -126
-254 -419 -392 -650 -139 -231 -329 -546 -422 -700 -93 -155 -172 -289 -176
-299 -4 -9 -11 -15 -16 -12 -15 9 -169 259 -373 601 -296 497 -598 1000 -877
1460 -175 287 -199 328 -230 385 -16 30 -52 91 -79 135 -71 113 -119 193 -197
325 -103 175 -304 499 -347 557 -40 55 -68 77 -136 112 -48 25 -159 36 -204
22z m5272 -935 c0 -2 -30 -18 -66 -37 -73 -36 -146 -104 -204 -189 -72 -108
-305 -490 -562 -925 -52 -88 -180 -299 -283 -470 -104 -170 -257 -422 -340
-560 -83 -137 -165 -272 -182 -300 -17 -27 -66 -108 -108 -178 -95 -157 -236
-391 -369 -609 -54 -90 -131 -215 -171 -278 -86 -136 -126 -202 -253 -415 -52
-88 -134 -223 -182 -300 -94 -152 -149 -243 -227 -375 -76 -129 -162 -269
-198 -325 -18 -27 -97 -156 -175 -285 -243 -400 -280 -460 -390 -635 -59 -93
-115 -183 -124 -200 -9 -16 -21 -37 -26 -45 -29 -45 -136 -221 -158 -260 -14
-25 -58 -94 -98 -155 -93 -143 -165 -260 -258 -420 -42 -71 -92 -155 -111
-185 -19 -30 -44 -72 -55 -93 -24 -44 -40 -44 -17 0 56 109 110 204 172 308
40 66 80 136 90 155 10 19 41 71 70 115 28 44 60 96 71 115 10 19 22 37 25 40
3 3 24 34 45 70 22 36 45 74 52 85 6 11 17 31 23 45 6 14 20 38 32 55 12 16
29 44 37 60 8 17 17 32 20 35 11 11 50 69 50 75 0 9 181 308 199 328 9 10 32
47 51 82 36 65 63 112 134 228 69 113 85 141 100 173 7 17 19 35 25 38 6 4 18
24 28 44 9 20 21 40 27 44 5 3 11 13 12 22 1 9 9 22 17 31 8 8 21 28 29 45 7
16 16 30 20 30 5 0 8 6 8 14 0 7 7 19 15 26 9 7 23 29 32 49 10 20 25 44 35
55 9 10 30 44 45 75 15 31 31 57 36 59 4 2 7 10 7 17 0 7 3 15 8 17 4 2 15 19
25 38 37 73 51 96 82 145 58 90 175 286 175 292 0 4 11 23 24 42 34 53 146
242 146 248 0 3 20 36 45 73 25 37 45 71 45 75 0 3 11 21 24 38 26 35 76 123
102 177 8 19 24 42 34 50 10 8 31 40 46 70 15 30 49 92 76 138 26 45 48 87 48
92 0 6 3 10 8 10 4 0 16 15 26 34 12 24 23 33 35 29 13 -4 14 -3 1 5 -12 9
-12 14 0 39 8 15 24 40 35 54 11 14 27 36 35 49 8 13 25 35 38 50 12 15 22 34
22 42 0 11 91 161 117 193 7 8 36 58 88 150 53 96 78 135 87 135 5 0 7 4 4 9
-4 5 -3 11 1 13 5 1 18 21 29 43 41 77 96 170 103 175 5 3 11 15 15 28 4 12
11 22 14 22 4 0 19 20 32 45 14 25 30 43 36 41 7 -3 12 6 12 20 0 14 6 32 14
42 9 9 32 46 52 82 21 36 50 83 66 105 16 22 29 46 30 53 0 6 5 12 10 12 6 0
10 6 10 13 1 6 15 35 33 64 18 29 59 96 91 150 33 54 65 105 71 113 7 8 26 40
42 70 31 56 36 64 125 205 69 108 132 213 153 254 9 19 21 39 27 45 16 20 131
204 247 398 9 15 33 56 55 92 66 111 203 264 258 289 16 6 28 15 28 18 0 5 16
11 95 34 16 5 25 5 25 1z m-5093 -226 c63 -102 231 -372 252 -405 24 -37 112
-182 289 -475 205 -340 318 -526 442 -730 62 -102 134 -221 160 -265 26 -44
72 -120 103 -170 30 -49 90 -148 133 -220 43 -71 108 -177 144 -235 37 -58
115 -186 175 -285 59 -99 116 -192 126 -206 37 -53 39 -73 15 -125 -43 -92
-278 -480 -556 -919 -32 -49 -74 -121 -93 -159 -34 -64 -37 -67 -47 -45 -5 13
-19 92 -30 174 -21 161 -74 390 -109 468 -11 27 -21 54 -21 60 0 17 -79 167
-123 232 -111 165 -221 277 -396 402 -169 120 -346 194 -601 250 -313 69 -673
12 -974 -155 -257 -142 -458 -365 -549 -608 -36 -95 -44 -132 -57 -259 -28
-270 -58 -442 -86 -498 -92 -180 -228 -249 -565 -286 -101 -12 -192 -23 -201
-25 -11 -3 -18 2 -18 12 0 15 163 329 310 597 42 77 103 190 135 250 32 61
108 200 170 310 61 110 142 256 180 325 37 69 79 145 93 170 13 25 40 74 59
110 20 36 46 83 58 105 12 22 41 76 65 120 23 44 77 143 120 220 215 389 256
465 285 520 18 33 73 133 124 223 50 89 91 165 91 168 0 2 31 60 68 127 38 67
103 185 144 262 166 307 328 605 359 656 17 30 72 135 122 234 49 99 94 185
99 192 12 15 50 -27 105 -117z m-353 -3290 c9 0 15 -4 11 -9 -6 -11 -104 -41
-134 -41 -12 0 -21 -3 -21 -7 0 -5 -21 -16 -48 -27 -26 -10 -52 -24 -57 -30
-16 -17 -53 -36 -70 -36 -8 0 -15 -5 -15 -11 0 -6 7 -8 16 -5 8 3 12 2 9 -4
-3 -6 -10 -10 -15 -10 -43 0 -182 -220 -201 -318 -11 -58 -8 -212 5 -287 6
-34 14 -101 15 -128 1 -16 5 -15 38 8 43 29 53 31 53 10 0 -8 -18 -28 -40 -43
-43 -29 -48 -43 -25 -62 12 -10 13 -16 4 -26 -16 -19 -32 -17 -62 6 -14 11
-32 20 -41 20 -22 0 -20 -37 2 -44 19 -6 48 -46 33 -46 -5 0 -11 5 -13 12 -3
7 -10 8 -17 3 -17 -10 -191 -14 -191 -4 0 4 4 9 9 11 4 2 12 13 15 26 6 19 4
22 -21 22 -16 0 -33 -4 -39 -9 -15 -14 -78 -21 -94 -11 -12 8 -10 10 10 10 33
0 50 28 36 56 -6 11 -17 19 -24 16 -19 -6 -15 46 6 57 16 9 16 10 0 16 -12 5
-16 15 -13 38 2 17 -1 37 -8 45 -9 11 -8 17 5 26 10 7 14 21 11 37 -3 17 3 33
21 52 15 16 24 32 21 37 -3 5 0 14 7 22 7 7 19 25 27 41 8 15 20 27 28 27 7 0
13 11 13 24 0 14 5 28 10 31 6 3 10 16 10 27 0 11 7 26 15 32 8 6 18 35 21 66
4 30 8 66 10 80 4 36 5 37 14 15 8 -19 9 -19 9 3 1 26 27 30 34 5 3 -10 4 -2
4 17 -2 29 2 36 21 38 14 2 22 10 22 23 0 12 7 19 20 19 11 0 20 -7 20 -15 0
-8 5 -15 12 -15 6 0 9 3 5 6 -12 12 23 65 41 62 9 -1 23 1 30 5 7 5 12 4 12
-2 0 -6 7 -11 16 -11 11 0 15 6 11 20 -4 17 -2 18 15 9 20 -11 37 0 38 24 0 4
6 7 13 6 26 -3 37 2 37 16 0 8 5 15 11 15 6 0 9 -7 5 -15 -3 -9 0 -15 8 -15 9
0 12 7 9 20 -4 15 0 20 16 20 17 0 56 18 106 48 12 8 28 11 72 14 18 2 33 7
33 12 0 5 8 2 18 -7 10 -10 26 -17 36 -17z m287 -128 c145 -41 175 -76 185
-213 3 -46 10 -92 15 -101 11 -21 12 -75 0 -82 -9 -6 -26 -103 -30 -173 -1
-17 -6 -22 -23 -20 -15 1 -26 -6 -35 -23 -7 -14 -13 -19 -13 -12 0 19 -18 14
-25 -8 -7 -21 -27 -29 -23 -9 2 6 -3 14 -9 16 -13 5 -15 -2 -17 -62 -1 -27 -5
-30 -41 -36 -22 -3 -55 -13 -74 -23 -33 -18 -93 -30 -140 -29 -15 1 -20 -2
-11 -7 8 -5 9 -9 1 -14 -6 -4 -15 -5 -20 -2 -4 3 -21 -8 -37 -24 -16 -16 -39
-30 -50 -30 -12 0 -32 -8 -45 -19 -30 -23 -210 -111 -228 -111 -7 0 -28 7 -47
16 -51 24 -47 58 11 85 25 12 45 25 45 29 0 4 -11 15 -25 24 -14 9 -25 24 -25
32 0 16 11 16 68 -1 17 -6 22 -3 22 11 0 32 -16 46 -53 46 -37 0 -64 19 -52
38 8 14 55 2 80 -21 11 -10 42 -27 69 -39 46 -19 50 -19 67 -4 26 24 24 82 -4
115 -25 30 -66 54 -85 50 -8 -1 -19 2 -25 7 -7 5 -28 14 -47 21 -106 35 -126
62 -117 157 3 34 10 71 15 81 5 10 20 41 33 68 38 81 119 152 239 213 58 29
128 59 155 66 70 19 205 13 296 -12z m390 -454 c17 -40 16 -165 0 -227 -13
-47 -50 -91 -77 -91 -15 0 -16 10 -10 98 12 183 19 237 30 244 23 16 44 7 57
-24z m-372 -303 c2 -10 9 -25 17 -33 20 -19 19 -56 -2 -48 -9 3 -20 6 -25 6
-5 0 -9 7 -9 15 0 9 -8 27 -17 41 -14 22 -14 27 -2 35 19 12 33 6 38 -16z
m-89 -38 c0 -20 -22 -37 -49 -37 l-24 0 23 25 c25 27 50 33 50 12z m-630 -58
c0 -18 -2 -19 -15 -9 -8 7 -15 16 -15 21 0 5 7 9 15 9 9 0 15 -9 15 -21z m730
-22 c0 -16 -64 -78 -99 -96 -20 -11 -26 -10 -46 9 -33 31 -49 79 -29 87 8 3
24 -3 34 -12 17 -16 25 -17 60 -6 21 6 42 16 45 21 9 15 35 12 35 -3z m-1102
-140 c8 -29 15 -74 17 -102 3 -63 11 -81 84 -208 32 -56 75 -135 95 -174 27
-56 41 -73 57 -73 21 0 191 65 309 118 36 16 117 46 180 67 128 42 139 48 121
69 -17 20 -3 63 22 70 52 14 146 6 181 -15 47 -27 47 -58 1 -107 -19 -20 -53
-56 -75 -80 -26 -28 -40 -52 -40 -69 0 -21 -3 -24 -12 -15 -7 7 -25 12 -41 12
-23 0 -27 -3 -19 -13 14 -16 -10 -33 -62 -42 -20 -4 -36 -11 -36 -16 0 -5 -7
-9 -15 -9 -13 0 -14 4 -5 20 7 14 7 20 0 20 -5 0 -10 -4 -10 -9 0 -5 -8 -7
-17 -5 -25 6 -145 -26 -288 -76 -87 -30 -136 -42 -177 -42 -70 0 -167 29 -190
57 -33 39 -86 151 -119 250 -33 101 -36 104 -143 219 -62 66 -65 80 -24 123
38 41 168 106 183 92 5 -6 16 -33 23 -62z m1237 -147 c3 -10 1 -47 -6 -81 -10
-53 -14 -59 -25 -45 -15 21 -27 100 -19 126 8 26 42 26 50 0z m-1656 -84 c36
-24 83 -50 105 -57 39 -14 76 -51 76 -75 0 -8 -3 -14 -6 -14 -11 0 -199 123
-226 149 -26 23 -36 41 -22 41 4 0 36 -20 73 -44z m1596 -259 c12 -63 -33
-266 -71 -324 -27 -42 -37 -28 -29 45 11 108 44 284 56 298 19 24 38 15 44
-19z m-1558 -101 c27 -30 31 -40 29 -82 -2 -27 1 -55 7 -61 5 -7 6 -20 3 -29
-4 -9 -1 -23 5 -30 6 -8 13 -39 15 -71 2 -31 11 -64 19 -73 8 -9 15 -22 15
-28 0 -6 9 -18 21 -26 12 -8 19 -20 16 -28 -2 -7 2 -20 9 -28 15 -18 21 -70
10 -88 -4 -7 -1 -14 7 -18 9 -3 15 -18 14 -37 0 -36 42 -115 53 -97 10 16 36
2 49 -26 16 -35 28 -22 36 39 14 107 33 152 49 111 12 -31 24 -3 30 68 3 40
12 113 18 161 10 76 16 92 38 109 14 11 27 26 30 35 4 11 21 0 68 -41 86 -77
145 -90 267 -61 74 17 208 78 256 116 42 33 58 35 100 13 19 -10 41 -13 60 -9
24 6 31 3 38 -17 7 -17 3 -34 -15 -67 -13 -24 -24 -49 -24 -55 0 -7 -14 -28
-31 -47 -17 -19 -42 -49 -56 -66 -14 -18 -31 -33 -39 -33 -7 0 -18 -9 -24 -20
-15 -28 -82 -89 -97 -90 -7 0 -17 -9 -23 -20 -6 -11 -17 -20 -26 -20 -8 0 -17
-7 -21 -16 -3 -8 -12 -13 -20 -10 -7 3 -21 1 -31 -4 -18 -9 -64 -29 -119 -50
-18 -7 -33 -19 -33 -27 0 -12 -8 -14 -35 -9 -32 6 -35 5 -35 -17 0 -32 -9 -38
-33 -26 -27 15 -69 -7 -65 -35 4 -32 -11 -50 -28 -35 -8 7 -14 7 -14 1 0 -13
-19 -20 -105 -42 -77 -19 -91 -17 -100 11 -4 10 -15 24 -26 29 -10 6 -19 17
-19 24 0 7 -17 18 -39 24 -21 7 -44 19 -51 27 -7 8 -18 15 -24 15 -6 0 -20 9
-29 21 -10 11 -25 18 -33 15 -10 -4 -14 2 -14 20 0 15 -10 37 -22 51 -13 14
-31 34 -40 44 -10 10 -18 27 -18 37 0 58 -41 21 -71 -64 -13 -35 -28 -63 -33
-61 -7 3 -10 39 -8 98 2 98 22 220 30 184 2 -11 8 -24 13 -29 5 -6 9 -18 9
-29 0 -10 4 -16 9 -13 5 3 12 -6 15 -20 9 -35 32 -24 29 14 -2 17 2 34 7 37
23 14 7 156 -22 190 -76 91 -95 100 -139 67 -13 -10 -46 -31 -74 -47 -47 -27
-385 -358 -385 -377 0 -15 -63 -36 -94 -33 -27 3 -57 13 -121 41 -16 7 -55 20
-85 28 -30 9 -70 25 -89 37 -31 19 -33 23 -29 62 6 47 63 147 84 147 8 0 14
-4 14 -10 0 -22 20 -8 36 25 18 38 29 44 38 19 8 -22 8 -54 -1 -53 -22 4 -33
-3 -33 -18 0 -9 -8 -25 -17 -36 -18 -19 -17 -20 9 -13 20 4 34 0 56 -19 45
-38 94 -55 171 -59 76 -4 81 -1 152 90 211 272 316 384 400 427 70 36 111 31
156 -17z m-261 12 c4 -7 4 -10 -1 -6 -4 4 -14 3 -22 -4 -11 -8 -12 -7 -7 6 7
19 20 21 30 4z m4987 -270 c135 -211 328 -527 674 -1108 44 -74 190 -317 324
-540 297 -493 309 -513 309 -545 0 -18 -7 -26 -27 -31 -45 -12 -375 4 -459 22
-319 65 -510 208 -708 529 -55 88 -116 187 -136 220 -243 394 -529 871 -543
909 -5 11 10 46 45 104 198 334 376 602 399 602 11 0 52 -54 122 -162z m-5163
83 c0 -10 -7 -21 -15 -25 -8 -3 -15 -1 -15 4 0 6 5 10 11 10 6 0 9 7 5 15 -3
8 -1 15 4 15 6 0 10 -9 10 -19z m-40 -70 c0 -18 -107 -151 -121 -151 -5 0 -7
10 -4 23 4 15 1 28 -9 36 -12 11 -13 17 -4 35 6 11 18 26 27 33 9 7 12 13 6
13 -5 0 1 6 15 13 24 12 90 11 90 -2z m-140 -21 c0 -5 -7 -10 -16 -10 -8 0
-12 5 -9 10 3 6 10 10 16 10 5 0 9 -4 9 -10z m-999 -323 c53 -253 157 -471
329 -687 123 -153 235 -243 493 -394 53 -31 97 -63 97 -71 0 -8 -13 -38 -28
-67 -16 -29 -27 -59 -25 -65 3 -7 0 -13 -5 -13 -5 0 -7 -11 -4 -25 3 -19 0
-25 -14 -25 -16 -1 -15 -3 6 -15 24 -14 24 -14 -14 -9 -76 9 -309 171 -482
336 l-91 87 -20 -22 c-29 -33 -67 -95 -108 -178 -37 -72 -94 -178 -307 -564
l-105 -190 -214 3 c-268 4 -588 18 -596 25 -6 7 -2 14 99 207 161 308 194 371
248 465 31 55 71 129 90 165 53 104 109 209 155 290 23 41 86 156 140 255 53
99 117 215 141 257 24 42 73 134 110 203 36 69 71 124 77 122 6 -2 18 -42 28
-90z m3563 -1612 c-4 -8 -11 -15 -16 -15 -6 0 -5 6 2 15 7 8 14 15 16 15 2 0
1 -7 -2 -15z"/>
<path d="M8505 12820 c4 -6 11 -8 16 -5 14 9 11 15 -7 15 -8 0 -12 -5 -9 -10z"/>
<path d="M7185 11389 c-10 -30 0 -33 13 -4 6 14 7 25 2 25 -5 0 -12 -9 -15
-21z"/>
<path d="M7191 11329 c-12 -12 -20 -24 -16 -27 3 -3 15 4 27 16 28 28 18 38
-11 11z"/>
<path d="M7140 11310 c0 -5 5 -10 11 -10 5 0 7 5 4 10 -3 6 -8 10 -11 10 -2 0
-4 -4 -4 -10z"/>
<path d="M15668 15663 c-13 -16 -49 -68 -78 -118 -29 -49 -111 -183 -182 -297
-98 -157 -128 -213 -123 -228 4 -12 23 -49 42 -83 126 -220 384 -719 379 -732
-2 -5 -44 31 -93 82 -113 118 -203 190 -352 283 -66 41 -121 82 -123 90 -3 8
-1 26 4 39 10 27 -2 45 -23 35 -8 -3 -38 -33 -67 -66 -48 -53 -53 -63 -46 -91
3 -17 7 -106 8 -197 3 -183 34 -380 82 -506 23 -63 25 -89 4 -68 -5 5 -37 63
-71 129 -33 66 -67 127 -74 135 -6 8 -31 50 -54 92 -23 42 -50 86 -59 99 l-18
22 -22 -34 c-12 -19 -29 -45 -38 -59 -38 -55 -86 -132 -170 -273 -49 -82 -108
-178 -131 -215 -23 -37 -42 -73 -42 -81 -1 -7 37 -77 83 -155 46 -77 128 -224
181 -326 131 -248 391 -721 470 -855 113 -190 264 -464 493 -895 71 -135 192
-355 267 -490 76 -135 188 -339 250 -455 190 -356 308 -574 387 -715 41 -74
101 -184 133 -245 32 -60 98 -180 145 -265 48 -85 102 -182 120 -215 83 -149
204 -277 309 -326 104 -49 106 -49 1234 -49 798 0 1057 3 1057 12 0 14 -72
147 -110 203 -15 22 -44 73 -65 113 -21 40 -53 88 -72 105 -18 17 -33 40 -33
49 0 23 -44 41 -80 33 -20 -4 -29 -2 -34 10 -10 26 2 35 45 35 37 0 40 2 34
23 -4 12 -27 60 -52 107 -25 47 -54 101 -64 120 -10 19 -73 134 -140 255 -67
121 -136 247 -154 280 -29 56 -45 85 -127 233 -70 126 -157 286 -371 682 -88
162 -163 300 -167 305 -9 13 -51 89 -162 300 -50 94 -107 199 -128 235 -69
120 -241 435 -451 828 -60 111 -115 212 -122 225 -8 12 -35 60 -59 107 -25 47
-70 130 -100 185 -30 55 -108 197 -173 315 -65 118 -153 278 -195 355 -43 77
-97 176 -121 220 -23 44 -86 159 -139 255 -53 96 -110 200 -125 230 -35 66
-149 276 -352 650 -83 151 -179 331 -213 400 -63 124 -104 190 -119 190 -4 0
-19 -12 -33 -27z m-247 -446 c-10 -9 -11 -8 -5 6 3 10 9 15 12 12 3 -3 0 -11
-7 -18z m-331 -557 c0 -5 -5 -10 -11 -10 -5 0 -7 5 -4 10 3 6 8 10 11 10 2 0
4 -4 4 -10z m400 -286 c119 -102 121 -105 214 -242 76 -113 123 -210 112 -237
-3 -8 -1 -28 4 -44 22 -77 9 -431 -16 -452 -10 -8 -14 -8 -14 0 0 6 -15 11
-32 11 -44 0 -83 21 -83 44 0 14 14 24 50 36 37 12 51 22 53 38 4 28 1 27 -88
-4 -71 -24 -75 -25 -115 -9 -53 20 -91 58 -73 72 27 21 221 103 244 103 24 0
25 2 19 43 -4 23 -10 58 -15 77 -7 32 -8 31 -9 -21 l-1 -56 -140 -57 c-77 -31
-151 -56 -164 -56 -25 0 -86 60 -86 84 0 8 43 33 98 57 53 23 128 57 167 76
38 18 82 33 98 33 24 0 28 3 22 18 -3 9 -11 40 -16 67 -11 62 -29 108 -45 118
-7 4 -23 31 -37 60 -24 54 -209 265 -267 307 -16 12 -30 28 -30 37 0 21 31 0
150 -103z m-219 25 c32 -18 59 -35 59 -39 0 -22 -184 -118 -194 -101 -10 16
-17 116 -9 127 9 12 63 43 77 44 4 0 35 -14 67 -31z m174 -124 c50 -29 64 -54
38 -69 -26 -15 -295 -137 -315 -143 -13 -4 -18 4 -23 42 -4 26 -13 52 -20 58
-9 9 -7 15 9 28 59 47 195 108 240 109 16 0 48 -11 71 -25z m123 -129 c20 -13
48 -33 61 -45 33 -29 21 -39 -104 -89 -55 -22 -142 -58 -194 -81 -116 -50
-127 -51 -136 -8 -4 17 -13 42 -21 54 -13 20 -11 24 19 47 38 29 294 146 320
146 9 0 34 -11 55 -24z m-870 -125 c-18 -33 -36 -61 -40 -61 -10 0 3 26 41 86
37 60 37 47 -1 -25z m996 -50 c9 -27 16 -56 16 -63 0 -7 -24 -22 -52 -32 -29
-10 -117 -45 -195 -78 -94 -39 -148 -56 -158 -51 -20 11 -65 74 -65 90 0 27
394 207 420 193 10 -5 25 -32 34 -59z m158 -38 c25 -32 59 -85 76 -118 16 -33
65 -118 107 -190 83 -140 247 -439 313 -573 44 -88 66 -152 52 -152 -5 0 -27
24 -50 53 -66 83 -185 185 -315 268 -66 43 -128 85 -138 93 -15 14 -16 31 -11
159 6 132 4 153 -24 300 -17 87 -38 171 -46 188 -8 16 -13 29 -12 29 2 0 23
-26 48 -57z m-1215 -10 c-13 -30 -67 -113 -74 -113 -5 0 26 59 55 103 29 44
36 47 19 10z m788 -461 c50 -40 126 -91 170 -114 44 -23 96 -52 116 -64 l37
-23 4 -243 c4 -218 8 -256 32 -367 15 -68 25 -125 23 -127 -4 -5 -47 62 -47
72 0 7 -210 389 -371 674 -50 89 -139 265 -139 275 0 3 -18 37 -40 76 -22 39
-40 73 -40 75 0 2 37 -33 83 -79 45 -45 123 -115 172 -155z m610 -407 l40 -34
-30 -25 c-40 -33 -163 -92 -172 -82 -4 4 -7 30 -8 59 0 51 1 52 49 84 26 18
56 33 65 33 9 0 34 -16 56 -35z m211 -37 c106 -101 154 -167 220 -301 46 -96
59 -135 75 -224 19 -113 26 -353 10 -353 -13 0 -21 39 -27 147 -6 95 -37 251
-74 363 -34 104 -180 315 -256 370 -55 39 -74 70 -44 70 11 0 53 -31 96 -72z
m-69 -70 c59 -33 73 -49 73 -80 0 -21 5 -28 19 -28 12 0 21 -11 28 -32 8 -27
14 -33 34 -30 19 2 29 -4 37 -23 7 -14 12 -32 12 -38 0 -7 9 -30 20 -52 11
-22 20 -47 20 -57 0 -9 5 -20 10 -23 6 -3 10 -15 10 -25 0 -14 -14 -23 -54
-34 -30 -9 -59 -16 -64 -16 -6 0 -66 -20 -133 -45 -67 -25 -133 -45 -145 -45
-27 0 -64 44 -64 76 0 21 15 32 103 74 56 28 143 66 192 85 75 28 84 34 56 34
-19 1 -57 -10 -85 -24 -29 -14 -61 -27 -71 -30 -11 -2 -58 -20 -105 -40 -127
-55 -123 -56 -154 7 l-27 53 28 23 c26 21 252 137 298 153 17 6 16 7 -7 8 -15
1 -89 -26 -165 -60 l-137 -60 -18 23 c-9 13 -20 36 -24 53 -6 26 -2 34 27 58
33 28 212 116 236 117 6 0 29 -10 50 -22z m426 -385 c30 -48 269 -471 327
-578 24 -44 61 -111 82 -148 48 -83 108 -212 108 -233 0 -8 -53 39 -117 104
-122 121 -186 173 -316 254 l-75 46 -5 224 c-5 218 -6 230 -44 351 -10 31 16
18 40 -20z m-135 -56 c6 -7 12 -37 14 -67 l3 -54 -155 -49 c-85 -26 -164 -46
-175 -43 -29 8 -87 64 -79 77 16 26 316 148 365 149 9 0 21 -6 27 -13z m27
-200 c12 -64 3 -101 -30 -116 -55 -27 -116 -26 -171 2 -28 14 -56 33 -64 42
-19 22 -9 28 115 66 55 17 105 32 110 34 26 9 35 3 40 -28z m-483 -58 c55 -53
203 -155 371 -254 72 -43 97 -63 98 -79 2 -47 -2 -115 -12 -189 -10 -77 1
-237 21 -317 5 -19 12 -64 16 -100 6 -59 5 -64 -9 -50 -19 18 -214 369 -460
829 -37 69 -87 185 -87 203 0 14 8 9 62 -43z m463 -119 c3 -5 2 -16 -2 -24
-11 -20 -38 -3 -30 18 7 18 23 21 32 6z m581 -520 c46 -53 151 -225 169 -278
10 -26 21 -56 25 -67 23 -58 30 -115 29 -231 -1 -124 -1 -128 -16 -94 -8 19
-19 55 -23 80 -38 210 -74 331 -122 418 -52 95 -150 234 -201 287 -27 27 -54
57 -60 65 -23 28 170 -146 199 -180z m-312 138 c20 -13 34 -29 33 -37 -3 -18
-169 -133 -178 -123 -3 4 -9 29 -13 56 -6 48 -5 50 34 88 47 44 74 47 124 16z
m171 -116 c51 -33 82 -71 63 -76 -54 -14 -111 -37 -227 -92 -73 -35 -135 -64
-136 -64 -4 0 -25 87 -25 104 0 30 237 173 268 161 9 -3 34 -18 57 -33z m66
-128 c7 -8 21 -13 31 -11 21 6 78 -43 78 -65 0 -7 13 -38 29 -68 34 -67 45
-114 28 -128 -7 -6 -42 -17 -79 -26 -37 -8 -121 -34 -188 -56 -114 -39 -123
-40 -145 -26 -29 19 -48 53 -41 71 3 8 63 42 133 75 182 86 212 101 183 94
-14 -3 -34 -9 -45 -14 -95 -42 -291 -107 -301 -99 -6 5 -19 27 -29 49 -15 32
-16 42 -5 55 25 30 289 163 326 165 6 0 17 -7 25 -16z m343 -261 c41 -65 91
-152 289 -508 105 -190 219 -423 214 -438 -2 -6 -17 9 -34 34 -58 84 -253 255
-385 338 -38 24 -69 50 -70 59 -1 10 -2 91 -3 182 -2 151 -5 173 -32 265 -17
55 -34 108 -38 118 -4 10 -3 17 4 17 6 0 31 -30 55 -67z m-134 -59 c13 -33 13
-111 0 -119 -11 -7 -223 -59 -282 -69 -32 -6 -41 -2 -73 25 -20 18 -35 38 -33
46 3 16 117 65 258 113 107 36 118 36 130 4z m-503 -192 c72 -72 181 -150 388
-277 70 -43 129 -84 132 -92 3 -8 0 -103 -6 -212 -14 -221 -6 -349 30 -452 12
-33 19 -62 17 -65 -5 -4 -15 14 -173 296 -148 265 -178 319 -259 470 -154 286
-211 400 -201 400 3 0 35 -31 72 -68z m531 11 c5 -10 12 -37 16 -60 8 -55 -7
-63 -111 -63 -62 0 -86 5 -118 23 -63 36 -58 53 22 76 158 47 178 49 191 24z
m221 -543 l35 -30 -41 -37 c-23 -21 -60 -49 -82 -61 l-41 -23 0 59 c0 56 2 62
35 91 20 17 41 31 48 31 7 -1 27 -14 46 -30z m263 -77 c14 -16 43 -55 66 -88
22 -34 47 -67 57 -75 9 -7 28 -36 42 -64 14 -27 34 -61 44 -76 10 -14 33 -61
50 -105 29 -71 33 -93 35 -193 2 -62 0 -122 -5 -134 -7 -20 -9 -19 -20 13 -7
19 -15 52 -17 74 -7 52 -15 59 -49 41 -15 -8 -51 -17 -79 -21 -28 -3 -83 -13
-123 -21 -101 -20 -145 -18 -177 7 -14 11 -26 27 -26 35 0 17 83 60 136 69 21
4 78 23 126 41 112 43 122 43 141 -3 21 -50 21 -17 1 61 -31 118 -125 302
-222 435 -29 38 -15 41 20 4z m-97 -21 c49 -34 54 -54 18 -69 -15 -7 -68 -37
-118 -68 -49 -31 -110 -65 -134 -76 -50 -22 -56 -18 -67 39 -5 28 -2 38 22 63
42 45 195 134 234 138 3 0 23 -12 45 -27z m138 -150 c26 -27 47 -57 47 -67 0
-10 14 -48 31 -84 17 -36 33 -79 36 -96 5 -34 19 -28 -210 -90 -178 -48 -257
-44 -257 13 0 23 9 34 48 59 26 17 58 34 72 38 14 4 50 20 80 35 30 15 72 30
92 34 37 7 56 21 44 34 -4 3 -31 -6 -62 -21 -30 -15 -59 -27 -65 -27 -6 0 -25
-7 -42 -15 -53 -24 -179 -65 -187 -60 -15 9 -51 88 -46 100 2 7 26 23 53 37
26 13 82 44 123 68 63 37 173 89 190 90 3 0 26 -22 53 -48z m304 -284 c22 -35
62 -101 88 -148 27 -47 78 -137 116 -200 89 -151 123 -224 116 -244 -5 -13
-24 -16 -118 -16 l-111 0 -31 35 c-17 19 -36 35 -43 35 -17 0 -23 50 -29 265
-5 138 -10 195 -25 244 -35 112 -23 121 37 29z m-359 -451 c105 -70 192 -134
192 -142 0 -13 -26 -15 -157 -15 -87 0 -163 4 -169 8 -6 4 -22 27 -34 52 -12
25 -31 56 -40 70 -10 14 -36 68 -58 121 -22 53 -51 114 -66 137 -45 72 -29 66
57 -20 60 -61 134 -117 275 -211z m246 237 c3 -9 6 -38 6 -64 0 -39 -4 -52
-19 -60 -25 -13 -116 -13 -161 0 -40 12 -114 61 -112 74 1 12 94 44 157 55 83
14 122 13 129 -5z"/>
<path d="M17050 11380 c-13 -8 -12 -10 3 -10 9 0 17 5 17 10 0 12 -1 12 -20 0z"/>
</g>
</svg>
