<svg xmlns="http://www.w3.org/2000/svg" xmlns:xlink="http://www.w3.org/1999/xlink" width="1500" zoomAndPan="magnify" viewBox="0 0 1125 1124.99995" height="1500" preserveAspectRatio="xMidYMid meet" version="1.0"><defs><clipPath id="897bab76d8"><path d="M 227 357 L 515 357 L 515 756 L 227 756 Z M 227 357 " clip-rule="nonzero"/></clipPath><clipPath id="bcf414de24"><path d="M 210.820312 721.246094 L 450.949219 340.671875 L 531.503906 391.5 L 291.375 772.074219 Z M 210.820312 721.246094 " clip-rule="nonzero"/></clipPath><clipPath id="c430a80297"><path d="M 210.820312 721.246094 L 450.949219 340.671875 L 531.503906 391.5 L 291.375 772.074219 Z M 210.820312 721.246094 " clip-rule="nonzero"/></clipPath><clipPath id="b45ce5a4c2"><path d="M 418 357 L 683 357 L 683 769 L 418 769 Z M 418 357 " clip-rule="nonzero"/></clipPath><clipPath id="167923113b"><path d="M 614.398438 783.921875 L 402.742188 386.804688 L 486.800781 342.003906 L 698.457031 739.121094 Z M 614.398438 783.921875 " clip-rule="nonzero"/></clipPath><clipPath id="f2e8a50079"><path d="M 614.398438 783.921875 L 402.742188 386.804688 L 486.800781 342.003906 L 698.457031 739.121094 Z M 614.398438 783.921875 " clip-rule="nonzero"/></clipPath><clipPath id="a61b1f4ec9"><path d="M 585 358 L 852 358 L 852 769 L 585 769 Z M 585 358 " clip-rule="nonzero"/></clipPath><clipPath id="50d604f2de"><path d="M 570.144531 739.453125 L 782.894531 342.921875 L 866.824219 387.953125 L 654.078125 784.484375 Z M 570.144531 739.453125 " clip-rule="nonzero"/></clipPath><clipPath id="aa19d2f650"><path d="M 570.144531 739.453125 L 782.894531 342.921875 L 866.824219 387.953125 L 654.078125 784.484375 Z M 570.144531 739.453125 " clip-rule="nonzero"/></clipPath><clipPath id="1e5fb22140"><path d="M 818.855469 638.242188 L 914.183594 638.242188 L 914.183594 733.566406 L 818.855469 733.566406 Z M 818.855469 638.242188 " clip-rule="nonzero"/></clipPath><clipPath id="dffd9cd012"><path d="M 866.519531 638.242188 C 840.195312 638.242188 818.855469 659.582031 818.855469 685.90625 C 818.855469 712.226562 840.195312 733.566406 866.519531 733.566406 C 892.84375 733.566406 914.183594 712.226562 914.183594 685.90625 C 914.183594 659.582031 892.84375 638.242188 866.519531 638.242188 Z M 866.519531 638.242188 " clip-rule="nonzero"/></clipPath><clipPath id="1356a9bd9b"><path d="M 0.855469 0.242188 L 96.183594 0.242188 L 96.183594 95.566406 L 0.855469 95.566406 Z M 0.855469 0.242188 " clip-rule="nonzero"/></clipPath><clipPath id="34f8ade996"><path d="M 48.519531 0.242188 C 22.195312 0.242188 0.855469 21.582031 0.855469 47.90625 C 0.855469 74.226562 22.195312 95.566406 48.519531 95.566406 C 74.84375 95.566406 96.183594 74.226562 96.183594 47.90625 C 96.183594 21.582031 74.84375 0.242188 48.519531 0.242188 Z M 48.519531 0.242188 " clip-rule="nonzero"/></clipPath><clipPath id="307a01d960"><rect x="0" width="97" y="0" height="96"/></clipPath></defs><g clip-path="url(#897bab76d8)"><g clip-path="url(#bcf414de24)"><g clip-path="url(#c430a80297)"><path fill="#26458a" d="M 234.09375 684.722656 L 428.003906 377.398438 C 428.761719 376.199219 429.578125 375.042969 430.445312 373.921875 C 431.316406 372.800781 432.242188 371.726562 433.21875 370.699219 C 434.195312 369.671875 435.21875 368.691406 436.289062 367.761719 C 437.363281 366.835938 438.480469 365.960938 439.636719 365.144531 C 440.796875 364.324219 441.992188 363.566406 443.222656 362.863281 C 444.457031 362.164062 445.722656 361.523438 447.015625 360.945312 C 448.3125 360.371094 449.632812 359.859375 450.980469 359.410156 C 452.324219 358.964844 453.691406 358.582031 455.074219 358.269531 C 456.457031 357.957031 457.851562 357.714844 459.261719 357.539062 C 460.667969 357.363281 462.078125 357.253906 463.496094 357.21875 C 464.914062 357.179688 466.332031 357.214844 467.746094 357.316406 C 469.160156 357.417969 470.566406 357.589844 471.964844 357.828125 C 473.363281 358.070312 474.746094 358.378906 476.113281 358.753906 C 477.480469 359.128906 478.828125 359.570312 480.152344 360.078125 C 481.476562 360.589844 482.773438 361.160156 484.039062 361.796875 C 485.308594 362.429688 486.542969 363.128906 487.742188 363.882812 L 494.496094 368.148438 C 495.695312 368.902344 496.855469 369.71875 497.976562 370.589844 C 499.09375 371.460938 500.167969 372.382812 501.199219 373.359375 C 502.226562 374.335938 503.207031 375.359375 504.132812 376.433594 C 505.0625 377.503906 505.933594 378.621094 506.753906 379.777344 C 507.570312 380.9375 508.332031 382.132812 509.03125 383.367188 C 509.734375 384.597656 510.375 385.863281 510.949219 387.160156 C 511.527344 388.453125 512.039062 389.773438 512.484375 391.121094 C 512.933594 392.46875 513.3125 393.832031 513.625 395.214844 C 513.9375 396.597656 514.183594 397.996094 514.359375 399.402344 C 514.535156 400.808594 514.640625 402.222656 514.679688 403.640625 C 514.714844 405.058594 514.683594 406.472656 514.582031 407.886719 C 514.480469 409.304688 514.308594 410.710938 514.066406 412.105469 C 513.828125 413.503906 513.519531 414.886719 513.144531 416.253906 C 512.769531 417.621094 512.324219 418.96875 511.816406 420.292969 C 511.308594 421.617188 510.738281 422.914062 510.101562 424.179688 C 509.464844 425.449219 508.769531 426.683594 508.011719 427.882812 L 314.101562 735.207031 C 313.34375 736.40625 312.53125 737.566406 311.660156 738.683594 C 310.789062 739.804688 309.863281 740.878906 308.886719 741.90625 C 307.914062 742.9375 306.886719 743.914062 305.816406 744.84375 C 304.742188 745.769531 303.628906 746.644531 302.46875 747.460938 C 301.3125 748.28125 300.113281 749.042969 298.882812 749.742188 C 297.648438 750.445312 296.386719 751.082031 295.089844 751.660156 C 293.792969 752.234375 292.472656 752.75 291.125 753.195312 C 289.78125 753.640625 288.414062 754.023438 287.03125 754.335938 C 285.648438 754.648438 284.253906 754.894531 282.847656 755.070312 C 281.4375 755.246094 280.027344 755.351562 278.609375 755.386719 C 277.191406 755.425781 275.773438 755.394531 274.359375 755.289062 C 272.945312 755.1875 271.539062 755.019531 270.140625 754.777344 C 268.742188 754.539062 267.359375 754.230469 265.992188 753.851562 C 264.625 753.476562 263.277344 753.035156 261.953125 752.527344 C 260.628906 752.019531 259.335938 751.445312 258.066406 750.8125 C 256.800781 750.175781 255.566406 749.480469 254.367188 748.722656 L 247.609375 744.460938 C 246.410156 743.703125 245.25 742.886719 244.132812 742.015625 C 243.011719 741.148438 241.9375 740.222656 240.910156 739.246094 C 239.878906 738.269531 238.902344 737.246094 237.972656 736.171875 C 237.042969 735.101562 236.171875 733.984375 235.351562 732.828125 C 234.535156 731.667969 233.773438 730.472656 233.074219 729.242188 C 232.371094 728.007812 231.734375 726.742188 231.15625 725.449219 C 230.578125 724.152344 230.066406 722.832031 229.621094 721.484375 C 229.171875 720.140625 228.792969 718.773438 228.480469 717.390625 C 228.167969 716.007812 227.921875 714.613281 227.746094 713.203125 C 227.570312 711.796875 227.464844 710.382812 227.425781 708.964844 C 227.390625 707.546875 227.421875 706.132812 227.523438 704.71875 C 227.625 703.304688 227.796875 701.898438 228.039062 700.5 C 228.277344 699.101562 228.585938 697.71875 228.960938 696.351562 C 229.339844 694.984375 229.78125 693.636719 230.289062 692.3125 C 230.796875 690.988281 231.371094 689.691406 232.003906 688.425781 C 232.640625 687.15625 233.335938 685.921875 234.09375 684.722656 Z M 234.09375 684.722656 " fill-opacity="1" fill-rule="nonzero"/></g></g></g><g clip-path="url(#b45ce5a4c2)"><g clip-path="url(#167923113b)"><g clip-path="url(#f2e8a50079)"><path fill="#29427a" d="M 594.203125 745.613281 L 423.285156 424.933594 C 422.617188 423.679688 422.011719 422.398438 421.472656 421.085938 C 420.929688 419.777344 420.453125 418.441406 420.042969 417.085938 C 419.632812 415.726562 419.292969 414.351562 419.015625 412.960938 C 418.742188 411.570312 418.535156 410.167969 418.398438 408.757812 C 418.261719 407.34375 418.191406 405.929688 418.195312 404.511719 C 418.195312 403.09375 418.269531 401.679688 418.410156 400.265625 C 418.550781 398.855469 418.757812 397.453125 419.039062 396.0625 C 419.316406 394.671875 419.660156 393.296875 420.074219 391.941406 C 420.488281 390.585938 420.96875 389.25 421.511719 387.941406 C 422.054688 386.632812 422.664062 385.351562 423.332031 384.101562 C 424.003906 382.851562 424.734375 381.636719 425.523438 380.460938 C 426.3125 379.28125 427.15625 378.144531 428.058594 377.050781 C 428.957031 375.953125 429.910156 374.90625 430.914062 373.902344 C 431.917969 372.902344 432.96875 371.953125 434.066406 371.054688 C 435.164062 370.15625 436.304688 369.3125 437.484375 368.527344 C 438.664062 367.738281 439.882812 367.011719 441.132812 366.34375 L 448.183594 362.585938 C 449.433594 361.921875 450.714844 361.316406 452.027344 360.773438 C 453.335938 360.234375 454.671875 359.757812 456.03125 359.347656 C 457.386719 358.9375 458.761719 358.59375 460.152344 358.320312 C 461.542969 358.046875 462.945312 357.839844 464.359375 357.703125 C 465.769531 357.566406 467.183594 357.496094 468.601562 357.5 C 470.019531 357.5 471.4375 357.570312 472.847656 357.710938 C 474.257812 357.851562 475.660156 358.0625 477.050781 358.339844 C 478.441406 358.617188 479.816406 358.964844 481.171875 359.378906 C 482.527344 359.792969 483.863281 360.269531 485.171875 360.816406 C 486.480469 361.359375 487.761719 361.964844 489.011719 362.636719 C 490.261719 363.304688 491.476562 364.035156 492.652344 364.824219 C 493.832031 365.613281 494.96875 366.460938 496.066406 367.363281 C 497.160156 368.261719 498.207031 369.214844 499.210938 370.21875 C 500.210938 371.222656 501.164062 372.273438 502.0625 373.371094 C 502.960938 374.46875 503.800781 375.609375 504.589844 376.789062 C 505.375 377.96875 506.101562 379.183594 506.769531 380.4375 L 677.6875 701.117188 C 678.351562 702.371094 678.957031 703.652344 679.5 704.960938 C 680.039062 706.273438 680.515625 707.605469 680.925781 708.964844 C 681.335938 710.324219 681.679688 711.699219 681.953125 713.089844 C 682.230469 714.480469 682.433594 715.882812 682.570312 717.292969 C 682.710938 718.707031 682.777344 720.121094 682.777344 721.539062 C 682.773438 722.957031 682.703125 724.371094 682.5625 725.785156 C 682.421875 727.195312 682.210938 728.59375 681.933594 729.988281 C 681.65625 731.378906 681.308594 732.75 680.894531 734.109375 C 680.484375 735.464844 680.003906 736.796875 679.460938 738.109375 C 678.914062 739.417969 678.308594 740.695312 677.636719 741.945312 C 676.96875 743.199219 676.238281 744.410156 675.449219 745.589844 C 674.660156 746.769531 673.8125 747.90625 672.914062 749 C 672.011719 750.097656 671.058594 751.144531 670.054688 752.144531 C 669.050781 753.148438 668 754.097656 666.902344 754.996094 C 665.804688 755.894531 664.667969 756.738281 663.484375 757.523438 C 662.304688 758.3125 661.089844 759.039062 659.839844 759.703125 L 652.789062 763.460938 C 651.535156 764.128906 650.253906 764.734375 648.945312 765.273438 C 647.632812 765.816406 646.296875 766.292969 644.941406 766.703125 C 643.582031 767.113281 642.207031 767.453125 640.816406 767.730469 C 639.425781 768.003906 638.023438 768.210938 636.613281 768.347656 C 635.199219 768.484375 633.785156 768.554688 632.367188 768.550781 C 630.949219 768.550781 629.535156 768.476562 628.121094 768.335938 C 626.710938 768.195312 625.308594 767.988281 623.917969 767.710938 C 622.527344 767.429688 621.15625 767.085938 619.796875 766.671875 C 618.441406 766.257812 617.109375 765.777344 615.796875 765.234375 C 614.488281 764.691406 613.207031 764.082031 611.957031 763.414062 C 610.707031 762.742188 609.496094 762.011719 608.316406 761.222656 C 607.136719 760.433594 606 759.589844 604.90625 758.6875 C 603.808594 757.789062 602.761719 756.835938 601.761719 755.832031 C 600.757812 754.828125 599.808594 753.777344 598.910156 752.679688 C 598.011719 751.582031 597.167969 750.441406 596.382812 749.261719 C 595.59375 748.082031 594.867188 746.867188 594.203125 745.613281 Z M 594.203125 745.613281 " fill-opacity="1" fill-rule="nonzero"/></g></g></g><g clip-path="url(#a61b1f4ec9)"><g clip-path="url(#50d604f2de)"><g clip-path="url(#aa19d2f650)"><path fill="#3b60a4" d="M 590.789062 701.382812 L 762.589844 381.175781 C 763.261719 379.925781 763.992188 378.710938 764.78125 377.53125 C 765.570312 376.355469 766.417969 375.21875 767.316406 374.121094 C 768.21875 373.027344 769.171875 371.980469 770.175781 370.976562 C 771.179688 369.976562 772.234375 369.027344 773.332031 368.128906 C 774.429688 367.230469 775.566406 366.386719 776.746094 365.601562 C 777.929688 364.816406 779.144531 364.089844 780.398438 363.421875 C 781.648438 362.757812 782.929688 362.152344 784.242188 361.613281 C 785.550781 361.070312 786.886719 360.597656 788.246094 360.1875 C 789.601562 359.777344 790.976562 359.433594 792.371094 359.160156 C 793.761719 358.886719 795.164062 358.679688 796.574219 358.542969 C 797.984375 358.40625 799.402344 358.339844 800.820312 358.339844 C 802.238281 358.34375 803.652344 358.414062 805.0625 358.558594 C 806.476562 358.699219 807.875 358.90625 809.265625 359.1875 C 810.65625 359.464844 812.03125 359.8125 813.386719 360.226562 C 814.746094 360.640625 816.078125 361.117188 817.386719 361.664062 C 818.695312 362.207031 819.976562 362.816406 821.226562 363.488281 L 828.265625 367.265625 C 829.515625 367.933594 830.730469 368.664062 831.90625 369.453125 C 833.085938 370.246094 834.222656 371.089844 835.316406 371.992188 C 836.410156 372.894531 837.460938 373.847656 838.460938 374.851562 C 839.460938 375.855469 840.414062 376.90625 841.308594 378.003906 C 842.207031 379.101562 843.050781 380.242188 843.835938 381.421875 C 844.621094 382.601562 845.347656 383.816406 846.015625 385.070312 C 846.683594 386.320312 847.285156 387.605469 847.828125 388.914062 C 848.367188 390.226562 848.84375 391.5625 849.253906 392.917969 C 849.664062 394.277344 850.003906 395.652344 850.277344 397.042969 C 850.554688 398.433594 850.757812 399.835938 850.894531 401.246094 C 851.03125 402.660156 851.101562 404.074219 851.097656 405.492188 C 851.09375 406.910156 851.023438 408.324219 850.882812 409.738281 C 850.742188 411.148438 850.53125 412.550781 850.253906 413.941406 C 849.972656 415.332031 849.628906 416.703125 849.214844 418.0625 C 848.800781 419.417969 848.320312 420.75 847.773438 422.058594 C 847.230469 423.371094 846.621094 424.648438 845.953125 425.898438 L 674.152344 746.109375 C 673.480469 747.359375 672.75 748.574219 671.960938 749.75 C 671.171875 750.929688 670.324219 752.066406 669.425781 753.160156 C 668.523438 754.253906 667.570312 755.304688 666.566406 756.304688 C 665.5625 757.304688 664.511719 758.257812 663.410156 759.15625 C 662.3125 760.050781 661.175781 760.894531 659.996094 761.679688 C 658.8125 762.46875 657.597656 763.191406 656.347656 763.859375 C 655.09375 764.527344 653.8125 765.128906 652.5 765.671875 C 651.191406 766.210938 649.855469 766.6875 648.496094 767.097656 C 647.140625 767.507812 645.765625 767.847656 644.375 768.121094 C 642.980469 768.398438 641.578125 768.601562 640.167969 768.738281 C 638.757812 768.875 637.339844 768.945312 635.921875 768.941406 C 634.503906 768.9375 633.089844 768.867188 631.679688 768.726562 C 630.265625 768.585938 628.867188 768.375 627.476562 768.097656 C 626.085938 767.816406 624.710938 767.472656 623.355469 767.058594 C 622 766.644531 620.664062 766.164062 619.355469 765.621094 C 618.046875 765.074219 616.765625 764.464844 615.515625 763.796875 L 608.476562 760.019531 C 607.226562 759.347656 606.011719 758.617188 604.835938 757.828125 C 603.65625 757.039062 602.519531 756.191406 601.425781 755.292969 C 600.332031 754.390625 599.28125 753.4375 598.28125 752.433594 C 597.28125 751.429688 596.328125 750.378906 595.433594 749.277344 C 594.535156 748.179688 593.691406 747.042969 592.90625 745.863281 C 592.121094 744.679688 591.394531 743.464844 590.726562 742.214844 C 590.058594 740.960938 589.457031 739.679688 588.914062 738.367188 C 588.375 737.058594 587.898438 735.722656 587.488281 734.363281 C 587.082031 733.007812 586.738281 731.632812 586.464844 730.242188 C 586.1875 728.847656 585.984375 727.445312 585.847656 726.035156 C 585.710938 724.625 585.640625 723.207031 585.644531 721.789062 C 585.648438 720.371094 585.71875 718.957031 585.859375 717.546875 C 586 716.132812 586.210938 714.734375 586.488281 713.34375 C 586.769531 711.953125 587.117188 710.578125 587.527344 709.222656 C 587.941406 707.867188 588.421875 706.53125 588.96875 705.222656 C 589.511719 703.914062 590.121094 702.632812 590.789062 701.382812 Z M 590.789062 701.382812 " fill-opacity="1" fill-rule="nonzero"/></g></g></g><g clip-path="url(#1e5fb22140)"><g clip-path="url(#dffd9cd012)"><g transform="matrix(1, 0, 0, 1, 818, 638)"><g clip-path="url(#307a01d960)"><g clip-path="url(#1356a9bd9b)"><g clip-path="url(#34f8ade996)"><path fill="#906a67" d="M 0.855469 0.242188 L 96.183594 0.242188 L 96.183594 95.566406 L 0.855469 95.566406 Z M 0.855469 0.242188 " fill-opacity="1" fill-rule="nonzero"/></g></g></g></g></g></g></svg>