<?xml version="1.0" encoding="UTF-8"?>
<svg version="1.1" xmlns="http://www.w3.org/2000/svg" width="1491" height="609">
<path d="M0 0 C0.25707536 22.41792253 0.45099254 44.83560172 0.56993389 67.25469971 C0.62663129 77.6646047 0.70391306 88.07359337 0.82983398 98.48291016 C0.93954803 107.55680995 1.0104572 116.63004614 1.03497344 125.7045908 C1.04930325 130.50898462 1.08292027 135.31148022 1.16303062 140.11526489 C1.23787568 144.64011063 1.26069522 149.16228286 1.24418449 153.68768883 C1.24720318 155.34541057 1.26898888 157.00322448 1.31126022 158.66040993 C1.61432421 171.15787417 1.61432421 171.15787417 -2.36254787 175.69593334 C-5.15730292 177.75793507 -7.92459696 179.39580299 -11 181 C-12.62632754 182.07186873 -14.24307375 183.15863626 -15.84350586 184.26879883 C-17.46554963 185.33418998 -19.08938543 186.39685695 -20.71484375 187.45703125 C-21.60134109 188.03876099 -22.48783844 188.62049072 -23.40119934 189.21984863 C-25.28048425 190.45301426 -27.16047593 191.6851034 -29.0411377 192.91616821 C-47.14734717 204.77082483 -65.15243717 216.75947667 -83 229 C-79.78248368 231.14501088 -76.97990263 232.12004782 -73.30859375 233.328125 C-72.62721344 233.55400299 -71.94583313 233.77988098 -71.24380493 234.01260376 C-68.97654539 234.76306492 -66.70719118 235.50692789 -64.4375 236.25 C-61.18441082 237.31884151 -57.93196062 238.38961573 -54.6796875 239.4609375 C-53.40010918 239.88169052 -53.40010918 239.88169052 -52.09468079 240.3109436 C-46.5007347 242.1561793 -40.92437979 244.0476197 -35.3568573 245.97106934 C-31.52913965 247.29296001 -27.697324 248.60274414 -23.86526489 249.9119873 C-22.0000769 250.55285437 -20.13683218 251.19940592 -18.27560425 251.85168457 C-15.65870484 252.76779718 -13.03554853 253.6632598 -10.41015625 254.5546875 C-9.24209946 254.97241928 -9.24209946 254.97241928 -8.05044556 255.39859009 C-4.76045772 256.49653134 -2.54920637 257.13954205 0.85766602 256.27392578 C3.13763545 254.96071116 3.13763545 254.96071116 5.6875 253.0625 C12.10658532 249.06571102 19.50258931 247.47579722 27 247 C28.06734375 246.92072266 28.06734375 246.92072266 29.15625 246.83984375 C36.04823537 246.57565098 42.5478365 247.88060855 49.265625 249.24609375 C50.49796875 249.49488281 51.7303125 249.74367187 53 250 C54.56814453 250.3403125 54.56814453 250.3403125 56.16796875 250.6875 C59.301246 251.03324094 61.10579257 250.59072129 64.0625 249.5625 C76.20020573 246.01480793 87.41324389 247.946854 98.72265625 253.28515625 C107.3812933 258.08956228 113.65170252 265.33877208 120.046875 272.75 C122.54601675 275.6290113 125.07412385 278.47928146 127.625 281.3125 C128.08052246 281.82852783 128.53604492 282.34455566 129.00537109 282.8762207 C131.73379039 285.89014924 134.19768183 288.47322301 138 290 C142.66031414 289.1483081 145.2222926 287.26129183 148.4375 283.875 C149.20964844 283.06675781 149.98179687 282.25851562 150.77734375 281.42578125 C154.64833935 277.20102156 158.39405567 272.87854005 162.1171875 268.5234375 C171.43258616 257.85424388 181.5088173 249.84953253 196 248 C204.12446868 247.48999686 211.20527629 248.70142899 219 250.8125 C221.98852664 250.99928291 223.20680265 250.6943493 225.9375 249.6875 C237.87747338 245.32111034 251.11832519 245.67908967 263.65991211 245.73925781 C266.29890129 245.74994493 268.93720362 245.73931469 271.57617188 245.7265625 C293.25741402 245.7078745 312.39403834 248.22958721 332 258 C332.44988281 257.61328125 332.89976562 257.2265625 333.36328125 256.828125 C341.2618813 250.43326644 349.18273906 247.99268559 359.2265625 246.90625 C360.40188538 246.77842133 360.40188538 246.77842133 361.60095215 246.64801025 C369.46117016 245.85681957 377.28232173 245.69608893 385.17724609 245.73925781 C387.49993967 245.74999972 389.82186036 245.7392627 392.14453125 245.7265625 C400.09037802 245.71888914 407.92589428 246.05218476 415.828125 246.91015625 C416.57114868 246.9902594 417.31417236 247.07036255 418.07971191 247.15289307 C421.98593282 247.62006099 425.55570749 248.3384304 429.25 249.6875 C433.40274151 251.14095953 434.79417003 250.87958463 439 250 C440.23234375 249.75121094 441.4646875 249.50242188 442.734375 249.24609375 C443.38567383 249.11356201 444.03697266 248.98103027 444.70800781 248.84448242 C458.55924937 246.08383923 473.41051316 245.43691275 486 253 C495.89064794 260.20297187 500.27577938 268.11491983 503 280 C504.2904257 288.66445237 504.12691945 297.33023127 504.09765625 306.06640625 C504.09578815 307.71264096 504.0943661 309.35887623 504.09336853 311.00511169 C504.08957421 315.31061371 504.07977071 319.61608129 504.06866455 323.92156982 C504.05838366 328.32596369 504.05385668 332.73036319 504.04882812 337.13476562 C504.0381453 345.75652611 504.0211065 354.37825876 504 363 C504.66 363 505.32 363 506 363 C506 363.99 506 364.98 506 366 C506.66 366 507.32 366 508 366 C507.99333817 365.03328369 507.98667633 364.06656738 507.97981262 363.07055664 C507.91859755 353.8927035 507.87383555 344.7148926 507.84456348 335.53688049 C507.82900779 330.82007234 507.80795768 326.10343096 507.77368164 321.38671875 C507.7407234 316.821995 507.72307142 312.25743013 507.71536827 307.69259644 C507.70988937 305.96415715 507.69919386 304.23572505 507.68280983 302.50735474 C507.54169337 286.98195901 507.48992897 267.94854993 519 256 C528.78758627 248.64243515 537.94217038 247.11976447 550 248 C570.25018504 250.98608677 583.52888371 266.96357683 595.75390625 282.18359375 C600.29620618 287.81161339 600.29620618 287.81161339 607 290 C611.93730777 288.03860376 614.82857977 285.39626566 618.3125 281.4375 C618.7854248 280.90664795 619.25834961 280.3757959 619.74560547 279.82885742 C621.17178068 278.22614692 622.58633574 276.61374437 624 275 C626.9788657 271.64695378 629.97891094 268.31503286 633 265 C633.70511719 264.20464844 634.41023437 263.40929687 635.13671875 262.58984375 C643.45841282 253.64066108 653.6836857 248.70578139 665.8359375 247.78515625 C676.74828555 247.43450239 685.88011912 249.45481388 694 257 C703.72797987 266.72797987 704.36114105 280.02884682 706 293 C706.30180176 292.25427734 706.60360352 291.50855469 706.91455078 290.74023438 C708.30601315 287.32178851 709.71532559 283.91097382 711.125 280.5 C711.8365625 278.74042969 711.8365625 278.74042969 712.5625 276.9453125 C717.27897285 265.60028321 723.11211377 256.04766403 734.5625 250.6875 C743.66042698 246.99002883 753.68642689 246.90621793 763 250 C772.80067223 254.22385874 779.84396125 261.11743781 784 271 C784 271.99 784 272.98 784 274 C784.66 274 785.32 274 786 274 C786.061875 273.01 786.12375 272.02 786.1875 271 C787.28283712 263.65828095 792.12324037 258.14937754 797.69140625 253.5390625 C810.25561205 245.1629253 828.08363314 245.40781244 842.4375 248.1875 C853.30182631 250.85374522 861.04130708 255.8106702 868.6875 263.8125 C871.43021571 266.46127933 871.43021571 266.46127933 875 267 C877.40048 265.81584117 879.56241036 264.60974917 881.8125 263.1875 C891.86288122 256.90738175 902.35296321 255.08327648 914.1015625 257.6875 C919.70979499 259.58324056 924.28045226 262.27533609 928.9296875 265.92578125 C930.98083251 267.20262276 930.98083251 267.20262276 933.49609375 266.9296875 C936.60702131 265.77461611 937.98402541 264.2805569 940.1875 261.8125 C950.52703559 251.0450035 963.12273657 247.10496468 977.84790039 246.70751953 C989.45130769 246.59635241 1002.43761109 247.48915704 1011.53515625 255.51171875 C1016.358449 260.41218419 1019.07617377 265.8288094 1022 272 C1022.268125 271.3709375 1022.53625 270.741875 1022.8125 270.09375 C1027.40830768 260.05553849 1033.1987149 254.10238044 1043.46875 249.8984375 C1052.71503704 246.61657636 1063.31769786 247.12008527 1072.3203125 251 C1087.61758588 258.88198493 1092.67255519 274.66159207 1098.68075562 289.78121948 C1099.93119396 292.92776431 1101.19502202 296.06888968 1102.45765686 299.21055603 C1103.15650802 300.94976247 1103.85468236 302.68924101 1104.55223083 304.42897034 C1108.90285281 315.27245758 1113.32821011 326.08544764 1117.74493408 336.90213013 C1120.57060825 343.82715394 1123.38756843 350.75572675 1126.20547485 357.68391418 C1128.48215672 363.27922188 1130.76556933 368.8716138 1133.06303406 374.4584198 C1134.19495094 377.21491782 1135.31943507 379.97439664 1136.44155884 382.7348938 C1137.15047766 384.47179278 1137.86928266 386.20464702 1138.58862305 387.93725586 C1142.73687776 398.18358089 1145.58837651 408.50884614 1145.4375 419.625 C1145.42505249 420.84183472 1145.42505249 420.84183472 1145.41235352 422.08325195 C1145.14545164 431.59198759 1142.73020329 439.30146852 1136.05078125 446.28125 C1123.41163301 456.87405996 1106.50143243 455.98807729 1091 455 C1081.62741406 453.8884372 1073.76887349 449.57129702 1065.86328125 444.70703125 C1061.39951103 442.04582035 1058.15596759 441.6344048 1053 442 C1049.47444264 443.34144098 1049.47444264 443.34144098 1046.0625 445.25 C1045.45059814 445.5699292 1044.83869629 445.8898584 1044.20825195 446.21948242 C1041.66921865 447.54909951 1039.15160773 448.91769152 1036.6328125 450.28515625 C1023.21021743 457.37379582 1003.82845678 457.4335542 989.4375 453.375 C980.30210398 449.86044416 974.67688044 444.56435113 970 436 C969.30612377 434.34447652 968.63190356 432.68015479 968 431 C967.48953125 431.96099609 967.48953125 431.96099609 966.96875 432.94140625 C961.37042568 442.9320329 955.03986592 448.65022013 944 452 C931.21126049 455.01263598 921.13949012 452.0578146 910.11328125 445.4609375 C906.57806663 443.80200366 904.8536246 443.43428597 901 444 C898.17535714 445.10713554 895.53927815 446.49167188 892.875 447.9375 C891.47844652 448.67933896 890.0800618 449.41774286 888.6796875 450.15234375 C888.06851074 450.48226318 887.45733398 450.81218262 886.82763672 451.15209961 C878.87254849 454.84272496 867.14925628 454.1295172 859 451.375 C848.56663859 446.8611655 843.0573969 440.1147938 838 430 C837.79246094 430.6290625 837.58492187 431.258125 837.37109375 431.90625 C833.87183472 441.62804078 829.09813422 447.51574893 819.72265625 451.9921875 C804.79895063 457.51631383 784.60190215 457.56001297 770 451 C766.19218686 449.05750073 762.50321283 446.94666037 758.86328125 444.70703125 C754.39951103 442.04582035 751.15596759 441.6344048 746 442 C742.47444264 443.34144098 742.47444264 443.34144098 739.0625 445.25 C738.45059814 445.5699292 737.83869629 445.8898584 737.20825195 446.21948242 C734.66921865 447.54909951 732.15160773 448.91769152 729.6328125 450.28515625 C720.92673739 454.88294291 712.35032919 455.3204734 702.625 455.25 C701.56539062 455.25773437 700.50578125 455.26546875 699.4140625 455.2734375 C694.19419728 455.26064371 689.38108584 454.96594319 684.2734375 453.859375 C679.7610404 452.93583014 676.63352771 453.24644843 672.23339844 454.46240234 C668.23610245 455.42458487 664.21752227 455.33935175 660.125 455.3125 C659.24875977 455.30831055 658.37251953 455.30412109 657.46972656 455.29980469 C650.94336318 455.18607125 645.09794727 454.45611765 639 452 C638.278125 451.7215625 637.55625 451.443125 636.8125 451.15625 C629.19555226 447.80940933 623.23808457 441.68103781 620 434 C617.17695405 426.12585391 616.38348343 418.31762329 616 410 C615.34 410 614.68 410 614 410 C614 409.01 614 408.02 614 407 C609.05 407 604.1 407 599 407 C599 407.99 599 408.98 599 410 C598.34 410 597.68 410 597 410 C596.97873047 411.16402344 596.97873047 411.16402344 596.95703125 412.3515625 C596.44072022 424.04530971 593.69783282 436.55798579 585 445 C575.17589066 452.97980628 564.8514272 455.19956072 552.4375 455.25 C551.55070557 455.25539795 550.66391113 455.2607959 549.75024414 455.26635742 C544.54977635 455.22714961 539.97823097 454.72414701 534.9375 453.3125 C529.49092021 451.80927195 525.92439469 452.24958936 520.6328125 454.140625 C513.45863028 456.4823462 506.03836133 456.14608033 498.57421875 456.1328125 C497.3902803 456.13376923 496.20634186 456.13472595 494.98652649 456.13571167 C492.49451646 456.13639006 490.00250464 456.13455961 487.51049805 456.13037109 C483.68339112 456.12499423 479.85640028 456.13033984 476.02929688 456.13671875 C473.60677057 456.13605837 471.18424434 456.13477805 468.76171875 456.1328125 C467.61281662 456.13483673 466.46391449 456.13686096 465.28019714 456.13894653 C464.22182144 456.13579437 463.16344574 456.13264221 462.07299805 456.12939453 C461.1392485 456.12859894 460.20549896 456.12780334 459.24345398 456.12698364 C457 456 457 456 455 455 C455 465.23 455 475.46 455 486 C454.34 486 453.68 486 453 486 C453 475.77 453 465.54 453 455 C450.03 454.67 447.06 454.34 444 454 C442.53222725 453.61791313 441.07021509 453.21010929 439.625 452.75 C434.9294194 451.64087148 431.64064686 452.74488095 427.12890625 454.1953125 C421.20446593 455.71895133 415.09296127 455.76154403 409 456 C409.33 458.97 409.66 461.94 410 465 C410.66 464.67 411.32 464.34 412 464 C419.24087591 463.41605839 419.24087591 463.41605839 422.4375 465.875 C425.87725272 470.5530637 425.61142386 475.35044354 425 481 C423.19881522 484.00197464 422.09667268 485.45166366 419 487 C414.4388671 487.21214572 410.61893017 486.65984717 406 486 C406 476.1 406 466.2 406 456 C403.009375 456.03480469 400.01875 456.06960938 396.9375 456.10546875 C393.98503571 456.12898085 391.03258254 456.14713077 388.08007812 456.16479492 C386.0552897 456.17972084 384.03053266 456.20006893 382.00585938 456.22631836 C363.49857988 456.45994986 345.94084961 456.32423847 331 444 C330.18660156 444.45890625 329.37320313 444.9178125 328.53515625 445.390625 C313.13043375 453.63882288 297.3145448 456.12751351 279.96484375 456.203125 C278.92791885 456.20882507 277.89099396 456.21452515 276.82264709 456.22039795 C274.63673913 456.22979763 272.45081732 456.23636177 270.26489258 456.24023438 C266.97125616 456.24990093 263.67825506 456.28095742 260.38476562 456.3125 C233.50700698 456.44960681 233.50700698 456.44960681 222.25219727 451.36132812 C219.1216893 449.7008124 219.1216893 449.7008124 216.0859375 450.546875 C215.19132812 450.94390625 214.29671875 451.3409375 213.375 451.75 C207.23146175 454.39048922 202.40252923 455.12525728 195.6875 455.0625 C194.43324219 455.05347656 193.17898438 455.04445313 191.88671875 455.03515625 C190.93410156 455.02355469 189.98148437 455.01195312 189 455 C188.67 455.99 188.34 456.98 188 458 C186.02 458 184.04 458 182 458 C181.67 459.98 181.34 461.96 181 464 C182.65 464 184.3 464 186 464 C186 464.99 186 465.98 186 467 C184.35 467 182.7 467 181 467 C181 473.27 181 479.54 181 486 C180.01 486 179.02 486 178 486 C178 479.73 178 473.46 178 467 C176.68 467 175.36 467 174 467 C174 466.34 174 465.68 174 465 C175.32 464.67 176.64 464.34 178 464 C178.12375 462.88625 178.2475 461.7725 178.375 460.625 C179 457 179 457 181 455 C180.23816406 454.78085937 179.47632813 454.56171875 178.69140625 454.3359375 C166.75154547 450.66901396 159.29617719 446.00522938 153 435 C151.12739128 431.0603941 150.52517279 427.38110843 150 423.0625 C149.43673084 418.44067535 148.50182875 414.3991067 147 410 C147 409.01 147 408.02 147 407 C141.72 407 136.44 407 131 407 C131 407.99 131 408.98 131 410 C130.34 410 129.68 410 129 410 C128.96261719 410.81082031 128.92523438 411.62164062 128.88671875 412.45703125 C128.08799569 425.91003333 125.75499952 436.66992904 115.875 446.25 C104.4486339 455.97578653 89.215369 455.87452813 75 455 C69.90398941 454.19426527 65.14449918 453.03884618 60.4921875 450.78515625 C57.27701936 449.7722271 56.06904308 450.39234774 53.0625 451.8125 C41.70463595 457.08643687 25.5009492 456.58769668 13.64453125 453.0390625 C5.44503525 449.81739937 -1.95804634 445.08390732 -6 437 C-9.33378154 438.24226803 -12.19382319 439.63673012 -15.1340332 441.63525391 C-16.31005852 442.42943222 -16.31005852 442.42943222 -17.50984192 443.23965454 C-18.3483519 443.81283417 -19.18686188 444.38601379 -20.05078125 444.9765625 C-20.93251511 445.57367035 -21.81424896 446.1707782 -22.72270203 446.78598022 C-25.58884931 448.7281098 -28.45061144 450.6766017 -31.3125 452.625 C-33.29845353 453.97190666 -35.2847832 455.31825887 -37.27148438 456.6640625 C-40.2132411 458.65683322 -43.1548269 460.64984731 -46.09524536 462.64459229 C-52.70811081 467.13024378 -59.34004789 471.58449629 -66 476 C-73.17388372 480.7622405 -80.32096545 485.56228882 -87.453125 490.38671875 C-106.81131666 503.47859777 -126.22019939 516.48144768 -145.75476074 529.30892944 C-160.2916176 538.85780358 -174.7366774 548.53440121 -189.13796997 558.28631592 C-205.39971503 569.29442307 -221.77205118 580.12898833 -238.19140625 590.90039062 C-239.0885585 591.48944183 -239.98571075 592.07849304 -240.91004944 592.68539429 C-242.58454616 593.78449426 -244.25982028 594.88241115 -245.9360199 595.97891235 C-246.6795723 596.46685272 -247.42312469 596.95479309 -248.18920898 597.45751953 C-248.832285 597.87856964 -249.47536102 598.29961975 -250.13792419 598.73342896 C-252.07168438 600.01118526 -252.07168438 600.01118526 -254.05067444 601.65890503 C-256 603 -256 603 -259 603 C-260.03408281 580.94957775 -260.80658942 558.90320972 -261.27973557 536.8333559 C-261.50543954 526.58100417 -261.81320962 516.34395883 -262.31933594 506.10131836 C-265.62315407 437.90102401 -265.62315407 437.90102401 -254.84545898 423.55267334 C-245.46891536 413.44565131 -233.31838826 408.09753757 -220.62535095 403.35243225 C-212.20634005 400.07162119 -205.10904989 394.73718076 -197.89135933 389.39393234 C-195.31960876 387.49855147 -192.6942877 385.69189338 -190.05859375 383.88671875 C-187.70369695 382.25699902 -185.34977653 380.62622723 -183.00195312 378.98632812 C-182.23689453 378.45845703 -181.47183594 377.93058594 -180.68359375 377.38671875 C-180.01900146 376.92483154 -179.35440918 376.46294434 -178.66967773 375.98706055 C-177 375 -177 375 -175 375 C-175 374.34 -175 373.68 -175 373 C-175.59928314 372.84733673 -176.19856628 372.69467346 -176.81600952 372.53738403 C-185.59790271 370.22699125 -194.18186736 367.36985747 -202.7890625 364.4921875 C-204.38514479 363.96060998 -205.98128639 363.42921048 -207.57748413 362.89797974 C-210.89784898 361.79216763 -214.21749053 360.68421819 -217.53662109 359.57470703 C-221.79800192 358.15041913 -226.06118034 356.73159887 -230.32489967 355.31432915 C-233.60944446 354.22188225 -236.89303693 353.12659636 -240.17634201 352.03042984 C-241.7493896 351.50563534 -243.32273577 350.98173497 -244.89638138 350.45873642 C-247.08245284 349.73172957 -249.26721464 349.00091832 -251.45166016 348.26904297 C-252.69533356 347.85395477 -253.93900696 347.43886658 -255.22036743 347.01119995 C-258 346 -258 346 -259 345 C-259.12120925 342.79098473 -259.17089182 340.57804406 -259.1942749 338.36582947 C-259.20289055 337.66416501 -259.2115062 336.96250055 -259.22038293 336.23957354 C-259.24795134 333.87059788 -259.26809753 331.5016193 -259.28808594 329.13256836 C-259.3057988 327.4409862 -259.32380073 325.74940704 -259.34207153 324.05783081 C-259.50129309 308.59345879 -259.58545831 293.12818651 -259.65206528 277.66316891 C-259.70230021 266.22874434 -259.78820664 254.7957547 -259.92068648 243.36198133 C-260.01066161 235.32626305 -260.05850887 227.29093857 -260.07564378 219.25473887 C-260.08711198 214.45375355 -260.11745002 209.65460145 -260.19359589 204.85416985 C-260.26453271 200.33336648 -260.28325255 195.81530104 -260.26247787 191.29401779 C-260.26390386 189.63792646 -260.28407726 187.98172502 -260.32471848 186.32613182 C-260.61541029 173.83923424 -260.61541029 173.83923424 -256.62810516 169.29946613 C-253.83609223 167.23995263 -251.07318404 165.60028198 -248 164 C-246.4530862 162.98092472 -244.91547257 161.94733961 -243.39453125 160.88989258 C-241.86891438 159.88880215 -240.34151157 158.89042908 -238.8125 157.89453125 C-237.06703395 156.7500356 -235.32159232 155.6055027 -233.57617188 154.4609375 C-232.21576782 153.57100098 -232.21576782 153.57100098 -230.82788086 152.66308594 C-214.63404882 142.06572369 -198.52396573 131.35230252 -182.5 120.5 C-168.0677265 110.72834071 -153.56889717 101.0667499 -139 91.5 C-119.52691801 78.71219613 -100.20067392 65.71531784 -80.90441895 52.66268921 C-73.76183898 47.83343448 -66.59122027 43.0478403 -59.40795898 38.27929688 C-52.64450063 33.78117221 -45.90765846 29.24444094 -39.17578125 24.69921875 C-38.20615448 24.04462677 -37.23652771 23.39003479 -36.23751831 22.71560669 C-31.32560519 19.39900023 -26.4149789 16.08050557 -21.50585938 12.75976562 C-19.68752023 11.53122006 -17.86916169 10.30270319 -16.05078125 9.07421875 C-15.21227127 8.50620041 -14.37376129 7.93818207 -13.50984192 7.35295105 C-2.6199823 0 -2.6199823 0 0 0 Z M410.0625 469.0625 C408.51193509 473.34935592 408.51581725 476.95567284 409.5625 481.375 C411.04201704 483.33669042 411.04201704 483.33669042 414.375 484 C417.94021328 484.29683988 417.94021328 484.29683988 420.4375 482.625 C422.73175805 478.77064647 422.6423057 475.37570761 422 471 C421.15479867 468.34155783 421.15479867 468.34155783 419 467 C413.95661625 466.17054178 413.95661625 466.17054178 410.0625 469.0625 Z " fill="#000000" transform="translate(311,4)"/>
<path d="M0 0 C0.25707536 22.41792253 0.45099254 44.83560172 0.56993389 67.25469971 C0.62663129 77.6646047 0.70391306 88.07359337 0.82983398 98.48291016 C0.93954803 107.55680995 1.0104572 116.63004614 1.03497344 125.7045908 C1.04930325 130.50898462 1.08292027 135.31148022 1.16303062 140.11526489 C1.23787568 144.64011063 1.26069522 149.16228286 1.24418449 153.68768883 C1.24720318 155.34541057 1.26898888 157.00322448 1.31126022 158.66040993 C1.61432421 171.15787417 1.61432421 171.15787417 -2.36254787 175.69593334 C-5.15730292 177.75793507 -7.92459696 179.39580299 -11 181 C-12.62632754 182.07186873 -14.24307375 183.15863626 -15.84350586 184.26879883 C-17.46554963 185.33418998 -19.08938543 186.39685695 -20.71484375 187.45703125 C-21.60134109 188.03876099 -22.48783844 188.62049072 -23.40119934 189.21984863 C-25.28048425 190.45301426 -27.16047593 191.6851034 -29.0411377 192.91616821 C-47.14734717 204.77082483 -65.15243717 216.75947667 -83 229 C-79.78248368 231.14501088 -76.97990263 232.12004782 -73.30859375 233.328125 C-72.28631935 233.66673805 -72.28631935 233.66673805 -71.24339294 234.01219177 C-68.97609187 234.76222299 -66.70678719 235.50600191 -64.4375 236.25 C-62.85090896 236.77399532 -61.26448616 237.2985003 -59.67822266 237.82348633 C-56.27455473 238.94950658 -52.87018576 240.07337143 -49.46533203 241.19580078 C-40.87180956 244.03049868 -32.28584876 246.8879424 -23.70046997 249.74719238 C-20.89645349 250.68036034 -18.09170158 251.61129184 -15.28686523 252.54199219 C-13.56361172 253.11515138 -11.84038446 253.68838953 -10.1171875 254.26171875 C-8.92590492 254.65622475 -8.92590492 254.65622475 -7.71055603 255.05870056 C-2.22759754 256.88620123 -2.22759754 256.88620123 0 258 C1.03403693 280.18083678 1.80656973 302.35764382 2.27973557 324.55779552 C2.50544746 334.8706313 2.81323869 345.16825253 3.31933594 355.47143555 C6.62315075 424.07846866 6.62315075 424.07846866 -4.15454102 438.46881104 C-13.52798334 448.59528278 -25.68358284 453.92842896 -38.38938904 458.66531372 C-46.80968524 461.93475643 -53.8674078 467.27181045 -61.09090805 472.59946251 C-63.48679237 474.35711793 -65.93703257 476.0247409 -68.40600586 477.67773438 C-69.48482277 478.40851196 -69.48482277 478.40851196 -70.58543396 479.15405273 C-71.28813919 479.62915283 -71.99084442 480.10425293 -72.71484375 480.59375 C-73.52208389 481.13974854 -74.32932404 481.68574707 -75.161026 482.24829102 C-77.75243859 483.99996735 -80.34479322 485.75023987 -82.9375 487.5 C-84.30853882 488.42558716 -84.30853882 488.42558716 -85.70727539 489.36987305 C-100.65406093 499.45468332 -115.68190272 509.41090268 -130.75338745 519.30810547 C-145.29577767 528.8605686 -159.74592738 538.54136686 -174.15307617 548.29638672 C-189.97300744 559.0043214 -205.89476803 569.55143328 -221.87304688 580.02148438 C-223.59255494 581.14957647 -225.31195804 582.27782858 -227.03125 583.40625 C-228.26917297 584.21733215 -228.26917297 584.21733215 -229.53210449 585.0447998 C-233.8563528 587.88910058 -238.14394687 590.77703623 -242.39453125 593.73046875 C-243.26718628 594.33580444 -244.13984131 594.94114014 -245.03894043 595.56481934 C-246.70531081 596.72512396 -248.36740628 597.8915995 -250.02453613 599.06506348 C-250.76602905 599.58177612 -251.50752197 600.09848877 -252.27148438 600.63085938 C-252.92129272 601.08956421 -253.57110107 601.54826904 -254.24060059 602.02087402 C-256 603 -256 603 -259 603 C-260.03408281 580.94957775 -260.80658942 558.90320972 -261.27973557 536.8333559 C-261.50543954 526.58100417 -261.81320962 516.34395883 -262.31933594 506.10131836 C-265.62315407 437.90102401 -265.62315407 437.90102401 -254.84545898 423.55267334 C-245.46891536 413.44565131 -233.31838826 408.09753757 -220.62535095 403.35243225 C-212.20634005 400.07162119 -205.10904989 394.73718076 -197.89135933 389.39393234 C-195.31960876 387.49855147 -192.6942877 385.69189338 -190.05859375 383.88671875 C-187.70369695 382.25699902 -185.34977653 380.62622723 -183.00195312 378.98632812 C-182.23689453 378.45845703 -181.47183594 377.93058594 -180.68359375 377.38671875 C-180.01900146 376.92483154 -179.35440918 376.46294434 -178.66967773 375.98706055 C-177 375 -177 375 -175 375 C-175 374.34 -175 373.68 -175 373 C-175.59928314 372.84733673 -176.19856628 372.69467346 -176.81600952 372.53738403 C-185.59790271 370.22699125 -194.18186736 367.36985747 -202.7890625 364.4921875 C-204.38514479 363.96060998 -205.98128639 363.42921048 -207.57748413 362.89797974 C-210.89784898 361.79216763 -214.21749053 360.68421819 -217.53662109 359.57470703 C-221.79800192 358.15041913 -226.06118034 356.73159887 -230.32489967 355.31432915 C-233.60944446 354.22188225 -236.89303693 353.12659636 -240.17634201 352.03042984 C-241.7493896 351.50563534 -243.32273577 350.98173497 -244.89638138 350.45873642 C-247.08245284 349.73172957 -249.26721464 349.00091832 -251.45166016 348.26904297 C-252.69533356 347.85395477 -253.93900696 347.43886658 -255.22036743 347.01119995 C-258 346 -258 346 -259 345 C-259.12120925 342.79098473 -259.17089182 340.57804406 -259.1942749 338.36582947 C-259.20289055 337.66416501 -259.2115062 336.96250055 -259.22038293 336.23957354 C-259.24795134 333.87059788 -259.26809753 331.5016193 -259.28808594 329.13256836 C-259.3057988 327.4409862 -259.32380073 325.74940704 -259.34207153 324.05783081 C-259.50129309 308.59345879 -259.58545831 293.12818651 -259.65206528 277.66316891 C-259.70230021 266.22874434 -259.78820664 254.7957547 -259.92068648 243.36198133 C-260.01066161 235.32626305 -260.05850887 227.29093857 -260.07564378 219.25473887 C-260.08711198 214.45375355 -260.11745002 209.65460145 -260.19359589 204.85416985 C-260.26453271 200.33336648 -260.28325255 195.81530104 -260.26247787 191.29401779 C-260.26390386 189.63792646 -260.28407726 187.98172502 -260.32471848 186.32613182 C-260.61541029 173.83923424 -260.61541029 173.83923424 -256.62810516 169.29946613 C-253.83609223 167.23995263 -251.07318404 165.60028198 -248 164 C-246.4530862 162.98092472 -244.91547257 161.94733961 -243.39453125 160.88989258 C-241.86891438 159.88880215 -240.34151157 158.89042908 -238.8125 157.89453125 C-237.06703395 156.7500356 -235.32159232 155.6055027 -233.57617188 154.4609375 C-232.21576782 153.57100098 -232.21576782 153.57100098 -230.82788086 152.66308594 C-214.63404882 142.06572369 -198.52396573 131.35230252 -182.5 120.5 C-168.0677265 110.72834071 -153.56889717 101.0667499 -139 91.5 C-119.52691801 78.71219613 -100.20067392 65.71531784 -80.90441895 52.66268921 C-73.76183898 47.83343448 -66.59122027 43.0478403 -59.40795898 38.27929688 C-52.64450063 33.78117221 -45.90765846 29.24444094 -39.17578125 24.69921875 C-38.20615448 24.04462677 -37.23652771 23.39003479 -36.23751831 22.71560669 C-31.32560519 19.39900023 -26.4149789 16.08050557 -21.50585938 12.75976562 C-19.68752023 11.53122006 -17.86916169 10.30270319 -16.05078125 9.07421875 C-15.21227127 8.50620041 -14.37376129 7.93818207 -13.50984192 7.35295105 C-2.6199823 0 -2.6199823 0 0 0 Z " fill="#13A3E1" transform="translate(311,4)"/>
<path d="M0 0 C0.33 0 0.66 0 1 0 C2.03403693 22.18083678 2.80656973 44.35764382 3.27973557 66.55779552 C3.50544746 76.8706313 3.81323869 87.16825253 4.31933594 97.47143555 C7.62315075 166.07846866 7.62315075 166.07846866 -3.15454102 180.46881104 C-12.52798334 190.59528278 -24.68358284 195.92842896 -37.38938904 200.66531372 C-45.80968524 203.93475643 -52.8674078 209.27181045 -60.09090805 214.59946251 C-62.48679237 216.35711793 -64.93703257 218.0247409 -67.40600586 219.67773438 C-68.48482277 220.40851196 -68.48482277 220.40851196 -69.58543396 221.15405273 C-70.28813919 221.62915283 -70.99084442 222.10425293 -71.71484375 222.59375 C-72.52208389 223.13974854 -73.32932404 223.68574707 -74.161026 224.24829102 C-76.75243859 225.99996735 -79.34479322 227.75023987 -81.9375 229.5 C-83.30853882 230.42558716 -83.30853882 230.42558716 -84.70727539 231.36987305 C-99.65406093 241.45468332 -114.68190272 251.41090268 -129.75338745 261.30810547 C-144.29577767 270.8605686 -158.74592738 280.54136686 -173.15307617 290.29638672 C-188.97300744 301.0043214 -204.89476803 311.55143328 -220.87304688 322.02148438 C-222.59255494 323.14957647 -224.31195804 324.27782858 -226.03125 325.40625 C-226.85653198 325.94697144 -227.68181396 326.48769287 -228.53210449 327.0447998 C-232.8563528 329.88910058 -237.14394687 332.77703623 -241.39453125 335.73046875 C-242.26718628 336.33580444 -243.13984131 336.94114014 -244.03894043 337.56481934 C-245.70531081 338.72512396 -247.36740628 339.8915995 -249.02453613 341.06506348 C-249.76602905 341.58177612 -250.50752197 342.09848877 -251.27148438 342.63085938 C-251.92129272 343.08956421 -252.57110107 343.54826904 -253.24060059 344.02087402 C-255 345 -255 345 -258 345 C-259.03408281 322.94957775 -259.80658942 300.90320972 -260.27973557 278.8333559 C-260.50543954 268.58100417 -260.81320962 258.34395883 -261.31933594 248.10131836 C-264.62315407 179.90102401 -264.62315407 179.90102401 -253.84545898 165.55267334 C-244.46851691 155.44522181 -232.31752883 150.09783479 -219.62446594 145.35144043 C-211.21506224 142.07413298 -204.11719101 136.75501425 -196.90930748 131.4142971 C-192.60810149 128.22822926 -188.20006487 125.19033309 -183.8125 122.125 C-182.53922852 121.19880859 -182.53922852 121.19880859 -181.24023438 120.25390625 C-180.40427734 119.67769531 -179.56832031 119.10148437 -178.70703125 118.5078125 C-177.9900708 117.99879395 -177.27311035 117.48977539 -176.53442383 116.96533203 C-170.01310795 114.48144002 -162.42758755 117.96249527 -156.16015625 120.10546875 C-155.21767029 120.42109268 -154.27518433 120.73671661 -153.30413818 121.06190491 C-150.2210963 122.0965126 -147.14183197 123.1419076 -144.0625 124.1875 C-141.90148663 124.91498485 -139.74026967 125.64186519 -137.57885742 126.36816406 C-123.12878854 131.23145232 -108.70334381 136.16730623 -94.28317261 141.11843872 C-81.51590037 145.50048706 -68.70554694 149.72816612 -55.85342407 153.85427856 C-42.50565718 158.14116711 -29.23741007 162.63879983 -16.00048828 167.25634766 C-15.29711334 167.50045883 -14.5937384 167.74457001 -13.86904907 167.99607849 C-11.97624331 168.65321992 -10.08475032 169.31413925 -8.19335938 169.9753418 C-4.73889967 171.15002932 -4.73889967 171.15002932 0 172 C0 115.24 0 58.48 0 0 Z " fill="#3874AB" transform="translate(310,262)"/>
<path d="M0 0 C0.25707536 22.41792253 0.45099254 44.83560172 0.56993389 67.25469971 C0.62663129 77.6646047 0.70391306 88.07359337 0.82983398 98.48291016 C0.93954803 107.55680995 1.0104572 116.63004614 1.03497344 125.7045908 C1.04930325 130.50898462 1.08292027 135.31148022 1.16303062 140.11526489 C1.23787568 144.64011063 1.26069522 149.16228286 1.24418449 153.68768883 C1.24720318 155.34541057 1.26898888 157.00322448 1.31126022 158.66040993 C1.61433574 171.15834959 1.61433574 171.15834959 -2.36366367 175.69649124 C-5.15806263 177.75803231 -7.92513774 179.39601232 -11 181 C-12.61586506 182.06643122 -14.22208257 183.14785187 -15.81176758 184.25292969 C-17.42097255 185.31185752 -19.03194991 186.36809598 -20.64453125 187.421875 C-21.52515228 188.00096115 -22.40577332 188.5800473 -23.31307983 189.17668152 C-27.12143494 191.67997973 -30.93463954 194.17582727 -34.74868774 196.67044067 C-44.65396846 203.14980873 -54.54726961 209.62640737 -64.2421875 216.41796875 C-65.61449198 217.36994995 -66.98711994 218.32146506 -68.36010742 219.27246094 C-70.25634214 220.5858996 -72.14411377 221.9060675 -74.01211548 223.25939941 C-75.69395161 224.47767136 -77.3958575 225.6610201 -79.10546875 226.83984375 C-80.03512451 227.50363037 -80.96478027 228.16741699 -81.92260742 228.85131836 C-89.98048757 231.85903959 -101.88887723 225.50623778 -109.86108398 222.83178711 C-111.45507807 222.30071971 -113.04920299 221.77004486 -114.64344788 221.23973083 C-118.95006734 219.80589448 -123.25480789 218.36649369 -127.55919528 216.9259727 C-132.06823364 215.41793194 -136.57890225 213.91478271 -141.08937073 212.411026 C-148.65490865 209.88795157 -156.21931334 207.36150476 -163.78295898 204.83276367 C-173.49904059 201.5844221 -183.21698115 198.34167932 -192.9355154 195.10068417 C-201.29084827 192.31424825 -209.64532752 189.52525628 -217.99966931 186.73585057 C-220.68699181 185.83870934 -223.37443194 184.94192118 -226.06188774 184.04517937 C-230.27555039 182.63899701 -234.48867858 181.23122466 -238.70139122 179.82219887 C-240.25005318 179.30446807 -241.79888543 178.78724633 -243.34789658 178.27056122 C-245.45570124 177.56737961 -247.56288301 176.86236297 -249.66990662 176.15684509 C-250.85101737 175.76214995 -252.03212812 175.36745481 -253.24903011 174.96079922 C-256 174 -256 174 -258 173 C-256.87649315 169.62947945 -256.38326247 169.30666058 -253.52978516 167.45751953 C-252.78600616 166.96957916 -252.04222717 166.48163879 -251.27590942 165.97891235 C-250.45524994 165.4521994 -249.63459045 164.92548645 -248.7890625 164.3828125 C-247.93142303 163.82266449 -247.07378357 163.26251648 -246.19015503 162.68539429 C-244.32311362 161.46689994 -242.45371153 160.25201703 -240.58227539 159.0402832 C-235.52549226 155.76525111 -230.48638574 152.46320354 -225.4453125 149.1640625 C-224.40534119 148.48438416 -223.36536987 147.80470581 -222.29388428 147.10443115 C-211.95843035 140.34029202 -201.72389226 133.43110317 -191.5 126.5 C-177.06896429 116.72654596 -162.56890691 107.06666899 -148 97.5 C-128.60975444 84.76702158 -109.36197625 71.83119513 -90.1524353 58.82762146 C-84.81408467 55.21718539 -79.45970013 51.63176538 -74.09375 48.0625 C-67.55772401 43.71492309 -61.04227347 39.3379178 -54.5390625 34.94140625 C-53.64605438 34.33787827 -52.75304626 33.73435028 -51.83297729 33.11253357 C-48.18508989 30.6467036 -44.53753292 28.18039139 -40.89160156 25.71166992 C-30.89281347 18.94288776 -20.87154551 12.20981865 -10.7734375 5.58984375 C-9.91980621 5.02600479 -9.06617493 4.46216583 -8.18667603 3.88124084 C-7.0102504 3.11426125 -7.0102504 3.11426125 -5.81005859 2.33178711 C-5.12027924 1.87984482 -4.43049988 1.42790253 -3.71981812 0.96226501 C-2 0 -2 0 0 0 Z " fill="#B10000" transform="translate(311,4)"/>
<path d="M0 0 C78.92376682 0 78.92376682 0 91.9296875 11.7421875 C100.29204022 20.39165963 103.92287422 32.57400839 104.03125 44.4140625 C103.55106724 55.43425689 101.04828742 65.97317467 93 74 C91.515 74.495 91.515 74.495 90 75 C90.70125 75.66 91.4025 76.32 92.125 77 C100.65406609 85.64987439 105.33651981 94.58160918 105.5 106.9375 C105.3251406 120.19090542 100.20642332 130.41398937 91.5 140.125 C68.39663309 162.46720947 24.86627704 152 0 152 C0 101.84 0 51.68 0 0 Z " fill="#B10000" transform="translate(541,271)"/>
<path d="M0 0 C11.55 0 23.1 0 35 0 C45 25 55 50 65 75 C65.20107864 74.48588562 65.40215729 73.97177124 65.60932922 73.44207764 C75.05649533 49.28827244 84.50370716 25.13454331 94 1 C97 2 97 2 97.9768219 3.69163513 C98.25976608 4.42817825 98.54271027 5.16472137 98.83422852 5.92358398 C99.16241577 6.76136383 99.49060303 7.59914368 99.82873535 8.46231079 C100.17529175 9.38095917 100.52184814 10.29960754 100.87890625 11.24609375 C101.43197449 12.67192276 101.43197449 12.67192276 101.99621582 14.1265564 C103.19562793 17.22621345 104.37906595 20.33171172 105.5625 23.4375 C106.3764817 25.54882289 107.19150478 27.65974459 108.00756836 29.77026367 C109.99584744 34.91984453 111.97184563 40.07401124 113.94189453 45.23059082 C115.88509357 50.31658027 117.83568122 55.3997355 119.78686523 60.48266602 C120.61849686 62.65350309 121.44632127 64.82580368 122.26977539 66.99975586 C122.80332642 68.40173218 122.80332642 68.40173218 123.34765625 69.83203125 C123.64679932 70.62327393 123.94594238 71.4145166 124.25415039 72.22973633 C124.86512699 73.99082221 124.86512699 73.99082221 126 75 C126.20107864 74.48588562 126.40215729 73.97177124 126.60932922 73.44207764 C127.58978144 70.93533099 128.57027455 68.42860034 129.55078125 65.921875 C129.92100403 64.97537582 130.29122681 64.02887665 130.67266846 63.05369568 C133.94795886 54.68076417 137.22541298 46.30868048 140.50318909 37.9367218 C142.60076234 32.57823773 144.69602464 27.21887058 146.78608704 21.85745239 C147.57357636 19.83790095 148.36211522 17.81876329 149.15112305 15.79980469 C150.07392068 13.43797908 150.9947397 11.07537919 151.91333008 8.71191406 C152.31447021 7.68678711 152.71561035 6.66166016 153.12890625 5.60546875 C153.64046265 4.29292114 153.64046265 4.29292114 154.16235352 2.95385742 C155 1 155 1 156 0 C158.59359322 -0.08851529 161.16039691 -0.11525945 163.75390625 -0.09765625 C164.52935287 -0.0962413 165.3047995 -0.09482635 166.10374451 -0.09336853 C168.59003494 -0.08775345 171.0762366 -0.07519846 173.5625 -0.0625 C175.24413933 -0.05748694 176.92578006 -0.0529237 178.60742188 -0.04882812 C182.73831682 -0.03862838 186.86914075 -0.01966871 191 0 C186.58799406 11.94212501 181.94377484 23.78102882 177.20703125 35.59765625 C176.4592186 37.46677968 175.7115412 39.33595722 174.96398926 41.20518494 C172.9880092 46.14461705 171.00977354 51.08314258 169.03091812 56.02142334 C167.80904243 59.07112982 166.58780586 62.12109144 165.36679077 65.17114258 C156.04399249 88.45893871 146.71359103 111.74367638 137.3125 135 C136.9255899 135.95754181 136.53867981 136.91508362 136.14004517 137.90164185 C135.09063614 140.49740733 134.039876 143.09261934 132.98828125 145.6875 C132.69215942 146.41944077 132.3960376 147.15138153 132.09094238 147.90550232 C130.11758771 152.76482459 130.11758771 152.76482459 129 155 C126.69 155 124.38 155 122 155 C121.60321045 154.0205542 121.2064209 153.0411084 120.79760742 152.03198242 C117.20797481 143.17190237 113.61631036 134.31264941 110.02252197 125.45425415 C108.14322003 120.82124281 106.26626172 116.18729798 104.39271545 111.55195618 C103.61597672 109.63103464 102.83814405 107.71056063 102.05981445 105.7902832 C101.11757881 103.46539652 100.17725047 101.13973576 99.23901367 98.81323242 C98.61410034 97.27372925 98.61410034 97.27372925 97.9765625 95.703125 C97.61643066 94.81270508 97.25629883 93.92228516 96.88525391 93.00488281 C96.1630796 91.04266721 96.1630796 91.04266721 95 90 C94.73548538 90.64986877 94.47097076 91.29973755 94.19844055 91.96929932 C91.68402821 98.14654336 89.16913644 104.32359198 86.65372944 110.50043106 C85.36109976 113.674662 84.06864426 116.84896361 82.77661133 120.0234375 C81.28521265 123.68772187 79.79301228 127.35167951 78.30078125 131.015625 C77.84536453 132.13487366 77.38994781 133.25412231 76.92073059 134.4072876 C73.98238439 141.61972946 71.00624164 148.81559459 68 156 C66.02 156 64.04 156 62 156 C51.43918709 130.82397135 41.33791268 105.46470478 31.21643066 80.10974121 C28.54261444 73.41291312 25.86613585 66.71714867 23.19011307 60.02120209 C21.05622855 54.68143366 18.92305577 49.34138349 16.79168701 44.00061035 C13.38349936 35.46117847 9.97439281 26.92228653 6.53222656 18.39648438 C6.04972443 17.19920715 5.56722229 16.00192993 5.07009888 14.76837158 C4.23067606 12.68770553 3.3885485 10.60812734 2.54293823 8.52996826 C2.19506256 7.66704163 1.84718689 6.80411499 1.48876953 5.91503906 C1.19632355 5.19479553 0.90387756 4.474552 0.60256958 3.73248291 C0 2 0 2 0 0 Z " fill="#B00000" transform="translate(1119,271)"/>
<path d="M0 0 C11 0 11 0 14.890625 3 C16.04192715 4.30622147 17.16127847 5.64117824 18.25 7 C18.8471582 7.6919043 19.44431641 8.38380859 20.05957031 9.09667969 C21.7334105 11.04353815 23.36805709 13.01804828 25 15 C26.24476852 16.42126555 27.49334817 17.83923049 28.75 19.25 C29.26046875 19.84296875 29.7709375 20.4359375 30.296875 21.046875 C32.49365905 23.56612276 34.74689619 26.03102996 37 28.5 C39.84524228 31.61907011 42.6719958 34.74755391 45.4375 37.9375 C48.86257126 41.88078535 52.39885697 45.71936054 55.9375 49.56030273 C59.20637898 53.11498225 62.39997849 56.72593672 65.5625 60.375 C67.29549636 62.33403937 69.11339257 64.18885687 71 66 C71.2678833 65.40993164 71.5357666 64.81986328 71.81176758 64.21191406 C73.01173483 61.97815542 74.26612013 60.43726575 76.01171875 58.609375 C76.60122314 57.98635498 77.19072754 57.36333496 77.7980957 56.72143555 C78.42159912 56.07086182 79.04510254 55.42028809 79.6875 54.75 C80.96703096 53.39797253 82.24568767 52.04511712 83.5234375 50.69140625 C84.13155273 50.0483252 84.73966797 49.40524414 85.36621094 48.74267578 C87.76967467 46.17902902 90.07746062 43.54044044 92.37109375 40.87890625 C95.85160176 36.86421955 99.43973477 32.94386283 103 29 C104.50028679 27.33359149 106.00028872 25.66692647 107.5 24 C109.7717129 21.47499507 112.04435414 18.95086696 114.3203125 16.4296875 C118.48102058 11.81764837 122.61255743 7.18416425 126.6875 2.49609375 C127.43549316 1.64347059 128.19798378 0.80201622 129 0 C132.63 0 136.26 0 140 0 C140 50.82 140 101.64 140 154 C129.44 154 118.88 154 108 154 C107.67 126.94 107.34 99.88 107 72 C101.72 77.61 96.44 83.22 91 89 C88.36 91.64 85.72 94.28 83 97 C80.29259354 100.07345989 80.29259354 100.07345989 77.609375 103.16796875 C75.50760458 105.56051809 73.28559058 107.78366974 71 110 C67.08790692 108.40584497 64.62781914 105.86106668 61.6875 102.875 C61.19822021 102.3792749 60.70894043 101.8835498 60.20483398 101.37280273 C56.98131327 98.08113823 53.93770248 94.67802913 50.953125 91.171875 C47.86635234 87.7393838 44.564742 84.52280518 41.26196289 81.29907227 C38.22873634 78.31744977 35.68050842 75.35063552 33 72 C32.67 99.06 32.34 126.12 32 154 C21.44 154 10.88 154 0 154 C0 103.18 0 52.36 0 0 Z " fill="#3872A8" transform="translate(380,269)"/>
<path d="M0 0 C11 0 11 0 13.7265625 1.8359375 C14.35304688 2.67382812 14.97953125 3.51171875 15.625 4.375 C16.346875 5.28765625 17.06875 6.2003125 17.8125 7.140625 C18.534375 8.08421875 19.25625 9.0278125 20 10 C21.52621686 11.72215011 23.06769778 13.43090772 24.625 15.125 C27.23321162 18.02101428 29.8206549 20.93142136 32.375 23.875 C35.35916686 27.30332192 38.42188484 30.65620801 41.5 34 C45.14038132 37.9545882 48.73292613 41.94253589 52.25390625 46.00390625 C54.33202021 48.37955778 56.44618976 50.72082561 58.5625 53.0625 C62.10696445 56.98932963 65.57917903 60.96518552 69 65 C70.1282554 63.8717446 71.25614956 62.74312686 72.3828125 61.61328125 C73.53917449 60.4597124 74.70129744 59.31190691 75.8671875 58.16796875 C79.77914335 54.30928857 83.5023577 50.36369847 87.0859375 46.19921875 C89.35154569 43.59608118 91.67303552 41.04841276 94 38.5 C96.84524228 35.38092989 99.6719958 32.25244609 102.4375 29.0625 C105.39883782 25.65311107 108.44163405 22.32216031 111.5 19 C114.67636214 15.54743246 117.84001698 12.08630327 120.9375 8.5625 C121.76314453 7.63630859 121.76314453 7.63630859 122.60546875 6.69140625 C124.18413888 4.86896575 124.18413888 4.86896575 125.75 2 C128 0 128 0 139 0 C139 50.82 139 101.64 139 154 C128.77 154 118.54 154 108 154 C107.67 126.94 107.34 99.88 107 72 C96.50594443 82.28716507 96.50594443 82.28716507 86.8203125 92.9609375 C83.73307782 96.41917034 80.40048305 99.63918988 77.08520508 102.87768555 C74.76170999 105.16213661 72.81540189 107.27689716 71 110 C66.62814313 109.58314853 64.57007872 106.69171114 61.875 103.5625 C60.90043244 102.46307213 59.92383 101.36544505 58.9453125 100.26953125 C58.45450195 99.71861816 57.96369141 99.16770508 57.45800781 98.60009766 C55.30228516 96.23428951 53.03190815 93.99352743 50.75 91.75 C47.27884082 88.32271013 43.99498941 84.82151026 40.86328125 81.08203125 C38.04234996 77.92992144 34.99110762 74.99110762 32 72 C31.67 99.06 31.34 126.12 31 154 C20.77 154 10.54 154 0 154 C0 103.18 0 52.36 0 0 Z " fill="#B10000" transform="translate(848,269)"/>
<path d="M0 0 C1.65 0 3.3 0 5 0 C12.47894492 17.82186937 19.71623714 35.73489733 26.875 53.6875 C32.57782538 67.98688853 38.29977641 82.27562453 44.1875 96.5 C49.23058108 108.69053607 54.23950273 120.89444584 59.20352173 133.11743164 C59.98022025 135.0285952 60.75818089 136.93924636 61.53744507 138.84936523 C62.61948879 141.50238501 63.69705953 144.15717741 64.7734375 146.8125 C65.10079391 147.6128064 65.42815033 148.41311279 65.76542664 149.2376709 C68 154.77142921 68 154.77142921 68 157 C56.45 157 44.9 157 33 157 C28 144 28 144 28 141 C11.17 141 -5.66 141 -23 141 C-23.66 143.97 -24.32 146.94 -25 150 C-25.99 152.31 -26.98 154.62 -28 157 C-39.55 157 -51.1 157 -63 157 C-59.6244424 146.87332721 -59.6244424 146.87332721 -58.0456543 142.92797852 C-57.69010468 142.03603287 -57.33455505 141.14408722 -56.9682312 140.22511292 C-56.59070709 139.28586472 -56.21318298 138.34661652 -55.82421875 137.37890625 C-55.42268585 136.37443954 -55.02115295 135.36997284 -54.60745239 134.33506775 C-53.30364602 131.07639753 -51.99578479 127.81937455 -50.6875 124.5625 C-49.77626137 122.2890723 -48.86504738 120.01563471 -47.95385742 117.7421875 C-42.43042007 103.97585545 -36.84439817 90.23715628 -31.16992188 76.5324707 C-26.44998035 65.12878654 -21.8112719 53.69298386 -17.1875 42.25 C-16.8240448 41.35057678 -16.4605896 40.45115356 -16.08612061 39.5244751 C-15.7281842 38.63870789 -15.3702478 37.75294067 -15.00146484 36.84033203 C-14.29787336 35.09927505 -13.59426051 33.35822669 -12.890625 31.6171875 C-12.38283005 30.36066879 -12.38283005 30.36066879 -11.86477661 29.07876587 C-7.94071943 19.37320431 -3.97972536 9.68286456 0 0 Z " fill="#B00000" transform="translate(1365,266)"/>
<path d="M0 0 C1.65 0 3.3 0 5 0 C12.47894492 17.82186937 19.71623714 35.73489733 26.875 53.6875 C32.57782538 67.98688853 38.29977641 82.27562453 44.1875 96.5 C49.23058108 108.69053607 54.23950273 120.89444584 59.20352173 133.11743164 C59.98022025 135.0285952 60.75818089 136.93924636 61.53744507 138.84936523 C62.61948879 141.50238501 63.69705953 144.15717741 64.7734375 146.8125 C65.10079391 147.6128064 65.42815033 148.41311279 65.76542664 149.2376709 C68 154.77142921 68 154.77142921 68 157 C56.45 157 44.9 157 33 157 C28 144 28 144 28 141 C11.17 141 -5.66 141 -23 141 C-23.66 143.97 -24.32 146.94 -25 150 C-25.99 152.31 -26.98 154.62 -28 157 C-39.55 157 -51.1 157 -63 157 C-59.6244424 146.87332721 -59.6244424 146.87332721 -58.0456543 142.92797852 C-57.69010468 142.03603287 -57.33455505 141.14408722 -56.9682312 140.22511292 C-56.59070709 139.28586472 -56.21318298 138.34661652 -55.82421875 137.37890625 C-55.42268585 136.37443954 -55.02115295 135.36997284 -54.60745239 134.33506775 C-53.30364602 131.07639753 -51.99578479 127.81937455 -50.6875 124.5625 C-49.77626137 122.2890723 -48.86504738 120.01563471 -47.95385742 117.7421875 C-42.43042007 103.97585545 -36.84439817 90.23715628 -31.16992188 76.5324707 C-26.44998035 65.12878654 -21.8112719 53.69298386 -17.1875 42.25 C-16.8240448 41.35057678 -16.4605896 40.45115356 -16.08612061 39.5244751 C-15.7281842 38.63870789 -15.3702478 37.75294067 -15.00146484 36.84033203 C-14.29787336 35.09927505 -13.59426051 33.35822669 -12.890625 31.6171875 C-12.38283005 30.36066879 -12.38283005 30.36066879 -11.86477661 29.07876587 C-7.94071943 19.37320431 -3.97972536 9.68286456 0 0 Z " fill="#B00000" transform="translate(1058,266)"/>
<path d="M0 0 C25.41 0 50.82 0 77 0 C77 10.23 77 20.46 77 31 C61.82 31 46.64 31 31 31 C31 40.9 31 50.8 31 61 C44.2 61 57.4 61 71 61 C71 71.23 71 81.46 71 92 C57.8 92 44.6 92 31 92 C31 101.57 31 111.14 31 121 C47.17 121 63.34 121 80 121 C80 131.23 80 141.46 80 152 C53.6 152 27.2 152 0 152 C0 101.84 0 51.68 0 0 Z " fill="#B00000" transform="translate(660,271)"/>
<path d="M0 0 C10.23 0 20.46 0 31 0 C31 39.93 31 79.86 31 121 C46.84 121 62.68 121 79 121 C79 131.23 79 141.46 79 152 C52.93 152 26.86 152 0 152 C0 101.84 0 51.68 0 0 Z " fill="#B10000" transform="translate(755,271)"/>
<path d="M0 0 C10.23 0 20.46 0 31 0 C31 50.16 31 100.32 31 152 C20.77 152 10.54 152 0 152 C0 101.84 0 51.68 0 0 Z " fill="#3873AA" transform="translate(328,271)"/>
<path d="M0 0 C7.239375 -0.0928125 7.239375 -0.0928125 14.625 -0.1875 C16.89238037 -0.22846802 16.89238037 -0.22846802 19.20556641 -0.27026367 C21.01033447 -0.28150269 21.01033447 -0.28150269 22.8515625 -0.29296875 C24.07697754 -0.3086792 25.30239258 -0.32438965 26.56494141 -0.34057617 C31.22690348 0.12164395 34.64498707 1.50481332 37.8125 5 C40.61543776 9.72073728 40.60636796 14.66728454 40 20 C37.76549656 24.38920318 35.09503244 27.97638708 30.28222656 29.56811523 C27.31732843 30.12918763 24.50200464 30.11137275 21.484375 30.09765625 C20.35741211 30.09515869 19.23044922 30.09266113 18.06933594 30.09008789 C15.93126465 30.07643188 15.93126465 30.07643188 13.75 30.0625 C9.2125 30.041875 4.675 30.02125 0 30 C0 20.1 0 10.2 0 0 Z " fill="#000000" transform="translate(572,302)"/>
<path d="M0 0 C4.28779954 -0.09226586 8.57210288 -0.17175694 12.86010742 -0.21972656 C14.31595584 -0.23973822 15.77172494 -0.26695677 17.22729492 -0.30175781 C32.22268174 -0.65108508 32.22268174 -0.65108508 38 4 C41.64959945 7.88505748 41.5053663 12.24512358 41.34765625 17.33984375 C40.84906325 21.1549205 39.63731193 23.22388218 37 26 C32.39266732 28.80750181 28.99229571 29.35940862 23.6328125 29.29296875 C22.61343094 29.28660149 22.61343094 29.28660149 21.57345581 29.28010559 C19.42355076 29.26344266 17.27461701 29.22581716 15.125 29.1875 C13.6588678 29.172437 12.19272076 29.15875143 10.7265625 29.14648438 C7.15037528 29.11614342 3.57626221 29.0574073 0 29 C0 19.43 0 9.86 0 0 Z " fill="#000000" transform="translate(572,363)"/>
<path d="M0 0 C2.84947242 2.84947242 3.60270819 6.31781154 4.8203125 10.0703125 C5.21559647 11.26465408 5.21559647 11.26465408 5.61886597 12.48312378 C6.4598885 15.02859534 7.29252704 17.5767211 8.125 20.125 C8.6934607 21.85044162 9.26246441 23.57570445 9.83203125 25.30078125 C11.22869899 29.53150365 12.61400134 33.7657105 14 38 C5.09 38 -3.82 38 -13 38 C-11.26055588 32.20185294 -9.55955504 26.56811402 -7.51953125 20.8984375 C-7.07802734 19.66738281 -6.63652344 18.43632812 -6.18164062 17.16796875 C-5.7253177 15.90362516 -5.26893682 14.63930248 -4.8125 13.375 C-4.34416219 12.07170039 -3.87606163 10.7683155 -3.40820312 9.46484375 C-2.27445598 6.30905273 -1.1383377 3.1541374 0 0 Z " fill="#010000" transform="translate(1367,340)"/>
<path d="M0 0 C2.84947242 2.84947242 3.60270819 6.31781154 4.8203125 10.0703125 C5.21559647 11.26465408 5.21559647 11.26465408 5.61886597 12.48312378 C6.4598885 15.02859534 7.29252704 17.5767211 8.125 20.125 C8.6934607 21.85044162 9.26246441 23.57570445 9.83203125 25.30078125 C11.22869899 29.53150365 12.61400134 33.7657105 14 38 C5.09 38 -3.82 38 -13 38 C-11.26055588 32.20185294 -9.55955504 26.56811402 -7.51953125 20.8984375 C-7.07802734 19.66738281 -6.63652344 18.43632812 -6.18164062 17.16796875 C-5.7253177 15.90362516 -5.26893682 14.63930248 -4.8125 13.375 C-4.34416219 12.07170039 -3.87606163 10.7683155 -3.40820312 9.46484375 C-2.27445598 6.30905273 -1.1383377 3.1541374 0 0 Z " fill="#010000" transform="translate(1060,340)"/>
<path d="M0 0 C1.32 0.33 2.64 0.66 4 1 C5.32 5.62 6.64 10.24 8 15 C9.65 10.38 11.3 5.76 13 1 C14.32 1 15.64 1 17 1 C17.41572266 2.28197266 17.41572266 2.28197266 17.83984375 3.58984375 C18.20207031 4.69457031 18.56429688 5.79929687 18.9375 6.9375 C19.29714844 8.03964844 19.65679688 9.14179688 20.02734375 10.27734375 C20.73856668 12.88123475 20.73856668 12.88123475 22 14 C23.32 9.38 24.64 4.76 26 0 C26.99 0 27.98 0 29 0 C27.77048326 7.47835477 26.11170763 14.7216477 24 22 C22.68 22 21.36 22 20 22 C18.35 17.38 16.7 12.76 15 8 C13.35 12.62 11.7 17.24 10 22 C8.68 22 7.36 22 6 22 C4.99553896 18.7096777 3.99719244 15.41753178 3 12.125 C2.71382812 11.18785156 2.42765625 10.25070312 2.1328125 9.28515625 C1.86210938 8.38925781 1.59140625 7.49335938 1.3125 6.5703125 C1.06113281 5.74289551 0.80976562 4.91547852 0.55078125 4.06298828 C0 2 0 2 0 0 Z " fill="#000000" transform="translate(1169,468)"/>
<path d="M0 0 C2.8153125 -0.0309375 2.8153125 -0.0309375 5.6875 -0.0625 C6.74324219 -0.07410156 7.79898437 -0.08570313 8.88671875 -0.09765625 C11.72267506 -0.00869903 14.23039756 0.44607951 17 1 C17.33 0.67 17.66 0.34 18 0 C25.28801816 -0.5877434 25.28801816 -0.5877434 27.74609375 1.44140625 C29.64943311 5.32516725 29.31728024 8.99054597 29.1875 13.25 C29.16719727 14.51070313 29.16719727 14.51070313 29.14648438 15.796875 C29.11123464 17.86485938 29.0574302 19.93251271 29 22 C28.01 22 27.02 22 26 22 C25.505 12.595 25.505 12.595 25 3 C22.36 3.33 19.72 3.66 17 4 C16.67 9.94 16.34 15.88 16 22 C15.01 22 14.02 22 13 22 C12.93941406 20.78441406 12.87882812 19.56882812 12.81640625 18.31640625 C12.73201668 16.73175772 12.6473679 15.14712298 12.5625 13.5625 C12.52318359 12.76005859 12.48386719 11.95761719 12.44335938 11.13085938 C12.5945704 7.24760439 12.5945704 7.24760439 11 4 C9.00041636 3.95919217 6.99954746 3.95745644 5 4 C3.414131 7.171738 3.62133555 10.63513822 3.4375 14.125 C3.39431641 14.87910156 3.35113281 15.63320313 3.30664062 16.41015625 C3.2005168 18.27321888 3.09974999 20.13658524 3 22 C2.01 22 1.02 22 0 22 C0 14.74 0 7.48 0 0 Z " fill="#000000" transform="translate(1023,468)"/>
<path d="M0 0 C2.8153125 -0.0309375 2.8153125 -0.0309375 5.6875 -0.0625 C6.74324219 -0.07410156 7.79898438 -0.08570313 8.88671875 -0.09765625 C11.72267506 -0.00869903 14.23039756 0.44607951 17 1 C17.33 0.67 17.66 0.34 18 0 C25.28801816 -0.5877434 25.28801816 -0.5877434 27.74609375 1.44140625 C29.64943311 5.32516725 29.31728024 8.99054597 29.1875 13.25 C29.16719727 14.51070313 29.16719727 14.51070313 29.14648438 15.796875 C29.11123464 17.86485938 29.0574302 19.93251271 29 22 C28.01 22 27.02 22 26 22 C25.505 12.595 25.505 12.595 25 3 C22.36 3.33 19.72 3.66 17 4 C16.67 9.94 16.34 15.88 16 22 C15.01 22 14.02 22 13 22 C12.93941406 20.78441406 12.87882813 19.56882812 12.81640625 18.31640625 C12.73201668 16.73175772 12.6473679 15.14712298 12.5625 13.5625 C12.52318359 12.76005859 12.48386719 11.95761719 12.44335938 11.13085938 C12.5945704 7.24760439 12.5945704 7.24760439 11 4 C9.00041636 3.95919217 6.99954746 3.95745644 5 4 C3.414131 7.171738 3.62133555 10.63513822 3.4375 14.125 C3.39431641 14.87910156 3.35113281 15.63320313 3.30664062 16.41015625 C3.2005168 18.27321888 3.09974999 20.13658524 3 22 C2.01 22 1.02 22 0 22 C0 14.74 0 7.48 0 0 Z " fill="#000000" transform="translate(682,468)"/>
<path d="M0 0 C0.99 0.33 1.98 0.66 3 1 C3.66 0.67 4.32 0.34 5 0 C11.47058824 -0.35294118 11.47058824 -0.35294118 15 2 C15.99 1.34 16.98 0.68 18 0 C21.7084697 -0.40456033 24.03410171 -0.63253516 27.20703125 1.4453125 C29.88866367 5.26620052 29.43464382 8.70492135 29.25 13.25 C29.23195313 14.09046875 29.21390625 14.9309375 29.1953125 15.796875 C29.14830798 17.86507395 29.07656724 19.93268441 29 22 C28.01 22 27.02 22 26 22 C25.93941406 20.78441406 25.87882812 19.56882812 25.81640625 18.31640625 C25.73201668 16.73175772 25.6473679 15.14712298 25.5625 13.5625 C25.52318359 12.76005859 25.48386719 11.95761719 25.44335938 11.13085938 C25.5945704 7.24760439 25.5945704 7.24760439 24 4 C22.00041636 3.95919217 19.99954746 3.95745644 18 4 C16.414131 7.171738 16.62133555 10.63513822 16.4375 14.125 C16.39431641 14.87910156 16.35113281 15.63320313 16.30664062 16.41015625 C16.2005168 18.27321888 16.09974999 20.13658524 16 22 C15.01 22 14.02 22 13 22 C12.93941406 20.86820312 12.87882812 19.73640625 12.81640625 18.5703125 C12.73200083 17.08852855 12.64735283 15.6067584 12.5625 14.125 C12.52318359 13.37863281 12.48386719 12.63226563 12.44335938 11.86328125 C12.28426376 7.80013136 12.28426376 7.80013136 11 4 C9.02 4 7.04 4 5 4 C2.57188075 9.82748619 2.38272093 15.7757491 2 22 C1.34 22 0.68 22 0 22 C0 14.74 0 7.48 0 0 Z " fill="#000000" transform="translate(408,468)"/>
<path d="M0 0 C1.32 0.33 2.64 0.66 4 1 C4.33 0.67 4.66 0.34 5 0 C9.23314767 -0.23961213 12.36736489 -0.32488647 16 2 C16.99 1.34 17.98 0.68 19 0 C25.23721389 -0.5568941 25.23721389 -0.5568941 27.70043945 1.24145508 C29.34884965 3.47205786 29.3483881 4.69672413 29.29296875 7.44921875 C29.28330078 8.29677734 29.27363281 9.14433594 29.26367188 10.01757812 C29.23853516 10.89865234 29.21339844 11.77972656 29.1875 12.6875 C29.16719727 14.02651367 29.16719727 14.02651367 29.14648438 15.39257812 C29.11114079 17.59566166 29.06180493 19.79752582 29 22 C28.34 22 27.68 22 27 22 C26.93941406 20.95199219 26.87882813 19.90398437 26.81640625 18.82421875 C26.73198262 17.44529952 26.64733553 16.06639395 26.5625 14.6875 C26.52318359 13.99720703 26.48386719 13.30691406 26.44335938 12.59570312 C26.25072585 9.52838465 25.97677283 6.93031848 25 4 C22.08365871 3.7497843 22.08365871 3.7497843 19 4 C16.59880941 7.60178588 16.56228678 10.50866369 16.375 14.6875 C16.33632813 15.38939453 16.29765625 16.09128906 16.2578125 16.81445312 C16.1637666 18.54254655 16.0808032 20.27123675 16 22 C15.01 22 14.02 22 13 22 C12.67 16.06 12.34 10.12 12 4 C9.36 4 6.72 4 4 4 C3.67 9.94 3.34 15.88 3 22 C2.01 22 1.02 22 0 22 C0 14.74 0 7.48 0 0 Z " fill="#000000" transform="translate(540,468)"/>
<path d="M0 0 C0.99 0 1.98 0 3 0 C3 10.23 3 20.46 3 31 C-10 32 -10 32 -15 28 C-16.2866645 25.426671 -16.16824551 23.49776962 -16.1875 20.625 C-16.20167969 19.66851562 -16.21585938 18.71203125 -16.23046875 17.7265625 C-15.99209647 14.90649717 -15.55451691 13.34468663 -14 11 C-9.94641576 8.29761051 -7.81689896 8.77062386 -3 9 C-2.34 9.33 -1.68 9.66 -1 10 C-0.67 6.7 -0.34 3.4 0 0 Z M-11.9375 13.4375 C-13.53993249 17.30219013 -13.54448293 20.87856668 -13 25 C-12.08686892 27.63926464 -12.08686892 27.63926464 -10 29 C-5.91834173 29.51020728 -4.47042703 29.31361802 -1 27 C0.52261658 22.43215027 0.58197209 18.60898166 -1.0625 14.0625 C-2.93885992 11.64422095 -2.93885992 11.64422095 -6.5 11.4375 C-9.92250901 11.71176512 -9.92250901 11.71176512 -11.9375 13.4375 Z " fill="#000000" transform="translate(912,459)"/>
<path d="M0 0 C0.99 0 1.98 0 3 0 C3.33 3.96 3.66 7.92 4 12 C5.4614226 10.56564079 6.91903049 9.12739414 8.375 7.6875 C9.59316406 6.48673828 9.59316406 6.48673828 10.8359375 5.26171875 C13.12604842 2.99990063 13.12604842 2.99990063 15 0 C16.32 0 17.64 0 19 0 C17.52278578 3.45201639 15.56205999 5.64961936 12.875 8.25 C12.15054688 8.95640625 11.42609375 9.6628125 10.6796875 10.390625 C10.12539063 10.92171875 9.57109375 11.4528125 9 12 C12.10157953 17.83096952 15.85556181 22.86601899 20 28 C18.68 28.33 17.36 28.66 16 29 C15.45730469 28.31292969 14.91460938 27.62585938 14.35546875 26.91796875 C13.64003906 26.01691406 12.92460938 25.11585938 12.1875 24.1875 C11.47980469 23.29417969 10.77210938 22.40085937 10.04296875 21.48046875 C8.43588623 19.52923089 6.82959577 17.73725024 5 16 C3.18884044 17.81115956 3.61800552 20.61278227 3.4375 23.0625 C3.35371094 24.16722656 3.26992188 25.27195312 3.18359375 26.41015625 C3.12300781 27.26480469 3.06242188 28.11945313 3 29 C2.01 29 1.02 29 0 29 C0 19.43 0 9.86 0 0 Z " fill="#000000" transform="translate(978,461)"/>
<path d="M0 0 C2.4375 1.5 2.4375 1.5 4 4 C4.60385912 6.70446305 4.81448364 9.21725459 5 12 C0.05 12.33 -4.9 12.66 -10 13 C-8.66436384 17.94463635 -8.66436384 17.94463635 -6 19 C-4.29297265 19.06996014 -2.58331997 19.08440154 -0.875 19.0625 C0.03507813 19.05347656 0.94515625 19.04445313 1.8828125 19.03515625 C2.58148437 19.02355469 3.28015625 19.01195312 4 19 C4 19.99 4 20.98 4 22 C0.25359813 23.24880062 -3.11593861 23.62291551 -7 23 C-10.38733615 21.09077417 -12.43762171 19.69029431 -13.6953125 15.91015625 C-14.57330655 10.44604437 -13.72729164 6.77276038 -11 2 C-7.30745291 -0.46169806 -4.28596391 -0.67400239 0 0 Z M-8.875 4.3125 C-10.2773501 6.07800472 -10.2773501 6.07800472 -10 9 C-6.37 9 -2.74 9 1 9 C0.5547002 4.36980013 0.5547002 4.36980013 -1 3 C-5.1914711 2.58599894 -5.1914711 2.58599894 -8.875 4.3125 Z " fill="#000000" transform="translate(1013,468)"/>
<path d="M0 0 C2.4375 1.5 2.4375 1.5 4 4 C4.60385912 6.70446305 4.81448364 9.21725459 5 12 C0.05 12.33 -4.9 12.66 -10 13 C-8.66436384 17.94463635 -8.66436384 17.94463635 -6 19 C-4.29297265 19.06996014 -2.58331997 19.08440154 -0.875 19.0625 C0.03507813 19.05347656 0.94515625 19.04445313 1.8828125 19.03515625 C2.58148437 19.02355469 3.28015625 19.01195312 4 19 C4 19.99 4 20.98 4 22 C0.25359813 23.24880062 -3.11593861 23.62291551 -7 23 C-10.38733615 21.09077417 -12.43762171 19.69029431 -13.6953125 15.91015625 C-14.57330655 10.44604437 -13.72729164 6.77276038 -11 2 C-7.30745291 -0.46169806 -4.28596391 -0.67400239 0 0 Z M-8.875 4.3125 C-10.2773501 6.07800472 -10.2773501 6.07800472 -10 9 C-6.37 9 -2.74 9 1 9 C0.5547002 4.36980013 0.5547002 4.36980013 -1 3 C-5.1914711 2.58599894 -5.1914711 2.58599894 -8.875 4.3125 Z " fill="#000000" transform="translate(754,468)"/>
<path d="M0 0 C2.4375 1.5 2.4375 1.5 4 4 C4.60385912 6.70446305 4.81448364 9.21725459 5 12 C0.05 12.33 -4.9 12.66 -10 13 C-8.66436384 17.94463635 -8.66436384 17.94463635 -6 19 C-4.29297265 19.06996014 -2.58331997 19.08440154 -0.875 19.0625 C0.03507813 19.05347656 0.94515625 19.04445313 1.8828125 19.03515625 C2.58148437 19.02355469 3.28015625 19.01195312 4 19 C4 19.99 4 20.98 4 22 C0.25359813 23.24880062 -3.11593861 23.62291551 -7 23 C-10.38733615 21.09077417 -12.43762171 19.69029431 -13.6953125 15.91015625 C-14.57330655 10.44604437 -13.72729164 6.77276038 -11 2 C-7.30745291 -0.46169806 -4.28596391 -0.67400239 0 0 Z M-8.875 4.3125 C-10.2773501 6.07800472 -10.2773501 6.07800472 -10 9 C-6.37 9 -2.74 9 1 9 C0.5547002 4.36980013 0.5547002 4.36980013 -1 3 C-5.1914711 2.58599894 -5.1914711 2.58599894 -8.875 4.3125 Z " fill="#000000" transform="translate(672,468)"/>
<path d="M0 0 C2.4375 1.5 2.4375 1.5 4 4 C4.60385912 6.70446305 4.81448364 9.21725459 5 12 C0.05 12.33 -4.9 12.66 -10 13 C-8.66436384 17.94463635 -8.66436384 17.94463635 -6 19 C-4.29297265 19.06996014 -2.58331997 19.08440154 -0.875 19.0625 C0.03507812 19.05347656 0.94515625 19.04445313 1.8828125 19.03515625 C2.58148438 19.02355469 3.28015625 19.01195312 4 19 C4 19.99 4 20.98 4 22 C0.25359813 23.24880062 -3.11593861 23.62291551 -7 23 C-10.38733615 21.09077417 -12.43762171 19.69029431 -13.6953125 15.91015625 C-14.57330655 10.44604437 -13.72729164 6.77276038 -11 2 C-7.30745291 -0.46169806 -4.28596391 -0.67400239 0 0 Z M-8.875 4.3125 C-10.2773501 6.07800472 -10.2773501 6.07800472 -10 9 C-6.37 9 -2.74 9 1 9 C0.5547002 4.36980013 0.5547002 4.36980013 -1 3 C-5.1914711 2.58599894 -5.1914711 2.58599894 -8.875 4.3125 Z " fill="#000000" transform="translate(398,468)"/>
<path d="M0 0 C13 0 13 0 18 4 C18.86993275 7.06907953 18.62419558 9.88474867 18 13 C16.23011713 15.52840411 15.00990868 16.58210675 12.1875 17.75 C9.11705607 18.10090788 6.08660641 18.05935782 3 18 C3 21.63 3 25.26 3 29 C2.01 29 1.02 29 0 29 C0 19.43 0 9.86 0 0 Z M3 3 C3 6.96 3 10.92 3 15 C8.4159661 15.35144861 8.4159661 15.35144861 13.5 13.875 C15.25790052 12.0014421 15.25790052 12.0014421 15.4375 9 C14.95220083 5.67223424 14.61982205 4.96486654 12 3 C9.71669899 2.63853543 9.71669899 2.63853543 7.3125 2.8125 C5.889375 2.874375 4.46625 2.93625 3 3 Z " fill="#000000" transform="translate(636,461)"/>
<path d="M0 0 C0.680625 -0.01417969 1.36125 -0.02835937 2.0625 -0.04296875 C4 0.1875 4 0.1875 7 2.1875 C7.90238747 4.89466242 8.11851302 6.42526768 8.09765625 9.19921875 C8.09443359 9.95654297 8.09121094 10.71386719 8.08789062 11.49414062 C8.07951172 12.27982422 8.07113281 13.06550781 8.0625 13.875 C8.05798828 14.67228516 8.05347656 15.46957031 8.04882812 16.29101562 C8.0370585 18.25654257 8.01912348 20.22203085 8 22.1875 C7.1028125 21.878125 7.1028125 21.878125 6.1875 21.5625 C3.71549154 20.88078085 3.71549154 20.88078085 1 23.1875 C-2.26606297 23.53495351 -4.36577208 23.47123354 -7.375 22.125 C-9 20.1875 -9 20.1875 -9.5 16.6875 C-9 13.1875 -9 13.1875 -7.1875 11.3125 C-2.99985385 9.15885341 0.34757645 9.09971842 5 9.1875 C4.34 7.5375 3.68 5.8875 3 4.1875 C-0.3 4.1875 -3.6 4.1875 -7 4.1875 C-7 3.1975 -7 2.2075 -7 1.1875 C-4.35559361 0.3060312 -2.71939248 0.02575182 0 0 Z M-5 13.1875 C-5.67958603 15.58469432 -5.67958603 15.58469432 -6 18.1875 C-5.34 18.8475 -4.68 19.5075 -4 20.1875 C-0.47105052 20.10006309 -0.47105052 20.10006309 3 19.1875 C5.36980013 16.23372502 5.36980013 16.23372502 5 12.1875 C-0.08303686 12.07429144 -0.08303686 12.07429144 -5 13.1875 Z " fill="#000000" transform="translate(1209,467.8125)"/>
<path d="M0 0 C0.680625 -0.01417969 1.36125 -0.02835937 2.0625 -0.04296875 C4 0.1875 4 0.1875 7 2.1875 C7.90238747 4.89466242 8.11851302 6.42526768 8.09765625 9.19921875 C8.09443359 9.95654297 8.09121094 10.71386719 8.08789062 11.49414062 C8.07951172 12.27982422 8.07113281 13.06550781 8.0625 13.875 C8.05798828 14.67228516 8.05347656 15.46957031 8.04882812 16.29101562 C8.0370585 18.25654257 8.01912348 20.22203085 8 22.1875 C7.1028125 21.878125 7.1028125 21.878125 6.1875 21.5625 C3.71549154 20.88078085 3.71549154 20.88078085 1 23.1875 C-2.26606297 23.53495351 -4.36577208 23.47123354 -7.375 22.125 C-9 20.1875 -9 20.1875 -9.5 16.6875 C-9 13.1875 -9 13.1875 -7.1875 11.3125 C-2.99985385 9.15885341 0.34757645 9.09971842 5 9.1875 C4.34 7.5375 3.68 5.8875 3 4.1875 C-0.3 4.1875 -3.6 4.1875 -7 4.1875 C-7 3.1975 -7 2.2075 -7 1.1875 C-4.35559361 0.3060312 -2.71939248 0.02575182 0 0 Z M-5 13.1875 C-5.67958603 15.58469432 -5.67958603 15.58469432 -6 18.1875 C-5.34 18.8475 -4.68 19.5075 -4 20.1875 C-0.47105052 20.10006309 -0.47105052 20.10006309 3 19.1875 C5.36980013 16.23372502 5.36980013 16.23372502 5 12.1875 C-0.08303686 12.07429144 -0.08303686 12.07429144 -5 13.1875 Z " fill="#000000" transform="translate(1066,467.8125)"/>
<path d="M0 0 C0.680625 -0.01417969 1.36125 -0.02835937 2.0625 -0.04296875 C4 0.1875 4 0.1875 7 2.1875 C7.90238747 4.89466242 8.11851302 6.42526768 8.09765625 9.19921875 C8.09443359 9.95654297 8.09121094 10.71386719 8.08789062 11.49414062 C8.07951172 12.27982422 8.07113281 13.06550781 8.0625 13.875 C8.05798828 14.67228516 8.05347656 15.46957031 8.04882812 16.29101562 C8.0370585 18.25654257 8.01912348 20.22203085 8 22.1875 C7.1028125 21.878125 7.1028125 21.878125 6.1875 21.5625 C3.71549154 20.88078085 3.71549154 20.88078085 1 23.1875 C-2.26606297 23.53495351 -4.36577208 23.47123354 -7.375 22.125 C-9 20.1875 -9 20.1875 -9.5 16.6875 C-9 13.1875 -9 13.1875 -7.1875 11.3125 C-2.99985385 9.15885341 0.34757645 9.09971842 5 9.1875 C4.34 7.5375 3.68 5.8875 3 4.1875 C-0.3 4.1875 -3.6 4.1875 -7 4.1875 C-7 3.1975 -7 2.2075 -7 1.1875 C-4.35559361 0.3060312 -2.71939248 0.02575182 0 0 Z M-5 13.1875 C-5.67958603 15.58469432 -5.67958603 15.58469432 -6 18.1875 C-5.34 18.8475 -4.68 19.5075 -4 20.1875 C-0.47105052 20.10006309 -0.47105052 20.10006309 3 19.1875 C5.36980013 16.23372502 5.36980013 16.23372502 5 12.1875 C-0.08303686 12.07429144 -0.08303686 12.07429144 -5 13.1875 Z " fill="#000000" transform="translate(583,467.8125)"/>
<path d="M0 0 C2.2421875 1.44140625 2.2421875 1.44140625 4 4 C4.48261172 7.09944804 4.37703353 10.12302076 4.25 13.25 C4.23195313 14.09046875 4.21390625 14.9309375 4.1953125 15.796875 C4.14830798 17.86507395 4.07656724 19.93268441 4 22 C1.92002174 22.2765289 -0.1643308 22.52030075 -2.25 22.75 C-3.41015625 22.88921875 -4.5703125 23.0284375 -5.765625 23.171875 C-9 23 -9 23 -11.4140625 21.23828125 C-13 19 -13 19 -13.125 15.4375 C-12 12 -12 12 -9.375 10.0625 C-5.72732029 8.91415639 -2.80130783 8.77192153 1 9 C0.34 7.35 -0.32 5.7 -1 4 C-3.97 4 -6.94 4 -10 4 C-10 3.01 -10 2.02 -10 1 C-6.87057535 -0.56471233 -3.38917777 -0.69701958 0 0 Z M-10 15 C-9.50243908 17.75641416 -9.50243908 17.75641416 -8 20 C-4.51944126 19.82432642 -4.51944126 19.82432642 -1 19 C1.36980013 16.04622502 1.36980013 16.04622502 1 12 C-3.73940561 11.72657275 -6.48550811 11.62608778 -10 15 Z " fill="#000000" transform="translate(1115,468)"/>
<path d="M0 0 C2.2421875 1.44140625 2.2421875 1.44140625 4 4 C4.48261172 7.09944804 4.37703353 10.12302076 4.25 13.25 C4.23195313 14.09046875 4.21390625 14.9309375 4.1953125 15.796875 C4.14830798 17.86507395 4.07656724 19.93268441 4 22 C1.92002174 22.2765289 -0.1643308 22.52030075 -2.25 22.75 C-3.41015625 22.88921875 -4.5703125 23.0284375 -5.765625 23.171875 C-9 23 -9 23 -11.4140625 21.23828125 C-13 19 -13 19 -13.125 15.4375 C-12 12 -12 12 -9.375 10.0625 C-5.72732029 8.91415639 -2.80130783 8.77192153 1 9 C0.34 7.35 -0.32 5.7 -1 4 C-3.97 4 -6.94 4 -10 4 C-10 3.01 -10 2.02 -10 1 C-6.87057535 -0.56471233 -3.38917777 -0.69701958 0 0 Z M-10 15 C-9.50243908 17.75641416 -9.50243908 17.75641416 -8 20 C-4.51944126 19.82432642 -4.51944126 19.82432642 -1 19 C1.36980013 16.04622502 1.36980013 16.04622502 1 12 C-3.73940561 11.72657275 -6.48550811 11.62608778 -10 15 Z " fill="#000000" transform="translate(815,468)"/>
<path d="M0 0 C0.96164062 0.01546875 1.92328125 0.0309375 2.9140625 0.046875 C5.375 0.25 5.375 0.25 7.375 1.25 C7.045 2.24 6.715 3.23 6.375 4.25 C5.76011719 4.15460938 5.14523437 4.05921875 4.51171875 3.9609375 C3.70347656 3.85007812 2.89523437 3.73921875 2.0625 3.625 C1.26199219 3.50898438 0.46148437 3.39296875 -0.36328125 3.2734375 C-2.91223215 3.03466593 -2.91223215 3.03466593 -5.625 5.25 C-5.87530977 7.83380177 -5.87530977 7.83380177 -5.625 10.25 C-4.78195312 10.64832031 -3.93890625 11.04664063 -3.0703125 11.45703125 C-1.42675781 12.25173828 -1.42675781 12.25173828 0.25 13.0625 C1.34054687 13.58457031 2.43109375 14.10664063 3.5546875 14.64453125 C6.375 16.25 6.375 16.25 8.375 19.25 C8.04925569 25.33056042 8.04925569 25.33056042 6 28.125 C3.03308967 30.17901484 0.36754476 30.38664182 -3.125 30.375 C-3.8984375 30.37757813 -4.671875 30.38015625 -5.46875 30.3828125 C-7.625 30.25 -7.625 30.25 -10.625 29.25 C-10.625 28.26 -10.625 27.27 -10.625 26.25 C-9.37783203 26.30220703 -9.37783203 26.30220703 -8.10546875 26.35546875 C-7.01878906 26.38253906 -5.93210937 26.40960938 -4.8125 26.4375 C-3.73355469 26.47230469 -2.65460938 26.50710938 -1.54296875 26.54296875 C1.39448844 26.51536952 1.39448844 26.51536952 3.26171875 24.73828125 C3.62910156 24.24714844 3.99648438 23.75601562 4.375 23.25 C4.02560634 20.81469493 4.02560634 20.81469493 2.375 18.25 C0.15907068 17.03123887 -2.0646536 16.12419816 -4.43359375 15.2421875 C-6.78508235 14.17752065 -8.06481449 13.30080989 -9.625 11.25 C-10.05859375 9.3125 -10.05859375 9.3125 -10.0625 7.25 C-10.09150391 6.2290625 -10.09150391 6.2290625 -10.12109375 5.1875 C-9.625 3.25 -9.625 3.25 -7.94921875 1.515625 C-5.09712097 -0.03745009 -3.2300302 -0.08706281 0 0 Z " fill="#000000" transform="translate(330.625,460.75)"/>
<path d="M0 0 C0.99 0 1.98 0 3 0 C3.33 3.3 3.66 6.6 4 10 C4.66 9.67 5.32 9.34 6 9 C13.24905375 8.53974262 13.24905375 8.53974262 15.9375 10.1875 C18.4729833 14.51273621 18.1080404 19.43967719 18.0625 24.3125 C18.05347656 25.56675781 18.04445313 26.82101562 18.03515625 28.11328125 C18.02355469 29.06589844 18.01195312 30.01851563 18 31 C17.01 31 16.02 31 15 31 C14.93941406 29.95199219 14.87882812 28.90398437 14.81640625 27.82421875 C14.73198262 26.44529952 14.64733553 25.06639395 14.5625 23.6875 C14.52318359 22.99720703 14.48386719 22.30691406 14.44335938 21.59570312 C14.25072585 18.52838465 13.97677283 15.93031848 13 13 C10.03 13 7.06 13 4 13 C3.67 18.94 3.34 24.88 3 31 C2.01 31 1.02 31 0 31 C0 20.77 0 10.54 0 0 Z " fill="#000000" transform="translate(1080,459)"/>
<path d="M0 0 C3.21954645 2.53453657 4.70432435 4.11297305 6 8 C6.39390983 13.21930524 5.87698427 16.58177416 3 21 C-0.15310177 23.39200824 -3.13305998 23.39458572 -7 23 C-10.07832272 21.67072428 -11.58347259 20.69421235 -13.3125 17.8125 C-14.50862856 12.9192468 -14.80659478 8.76682665 -12.6875 4.125 C-9.2195303 -0.24207296 -5.3155263 -1.03616497 0 0 Z M-8.8125 4.375 C-11.40512071 7.92279676 -11.36923914 10.6429781 -11 15 C-9.54366876 18.02938694 -9.54366876 18.02938694 -7 20 C-3.84476991 20.51513961 -2.00467667 20.55430437 0.8125 19 C2.68027585 15.85427225 3.1403443 12.59983123 3 9 C1.86225672 6.56936663 0.88186104 4.88186104 -1 3 C-5.19312773 2.55988027 -5.19312773 2.55988027 -8.8125 4.375 Z " fill="#000000" transform="translate(513,468)"/>
<path d="M0 0 C0.680625 -0.02578125 1.36125 -0.0515625 2.0625 -0.078125 C4.63882934 0.35818884 5.38643677 1.22028801 7 3.25 C7.34057617 5.3347168 7.34057617 5.3347168 7.29296875 7.69921875 C7.28330078 8.54677734 7.27363281 9.39433594 7.26367188 10.26757812 C7.23853516 11.14865234 7.21339844 12.02972656 7.1875 12.9375 C7.16719727 14.27651367 7.16719727 14.27651367 7.14648438 15.64257812 C7.11114079 17.84566166 7.06180493 20.04752582 7 22.25 C5.68 22.25 4.36 22.25 3 22.25 C2.34 22.58 1.68 22.91 1 23.25 C-2.375 23.625 -2.375 23.625 -6 23.25 C-8.5 21.0625 -8.5 21.0625 -10 18.25 C-9.93198585 15.39340556 -9.52628171 13.92117573 -7.765625 11.67578125 C-5.4983152 9.84487842 -3.67039513 9.54500177 -0.8125 9.0625 C0.08855469 8.90394531 0.98960938 8.74539063 1.91796875 8.58203125 C2.60503906 8.47246094 3.29210938 8.36289062 4 8.25 C3.67 6.93 3.34 5.61 3 4.25 C-0.3 4.25 -3.6 4.25 -7 4.25 C-7 3.26 -7 2.27 -7 1.25 C-4.38672515 0.37890838 -2.69288829 0.06120201 0 0 Z M-5.4375 14.25 C-5.953125 14.91 -6.46875 15.57 -7 16.25 C-6.34 17.57 -5.68 18.89 -5 20.25 C-0.8539119 20.59778172 -0.8539119 20.59778172 2.875 19.0625 C4.34781139 16.68963721 4.22223194 14.99086056 4 12.25 C-1.13725982 11.76510163 -1.13725982 11.76510163 -5.4375 14.25 Z " fill="#000000" transform="translate(1231,467.75)"/>
<path d="M0 0 C0.680625 -0.02578125 1.36125 -0.0515625 2.0625 -0.078125 C4.63882934 0.35818884 5.38643677 1.22028801 7 3.25 C7.34057617 5.3347168 7.34057617 5.3347168 7.29296875 7.69921875 C7.28330078 8.54677734 7.27363281 9.39433594 7.26367188 10.26757812 C7.23853516 11.14865234 7.21339844 12.02972656 7.1875 12.9375 C7.16719727 14.27651367 7.16719727 14.27651367 7.14648438 15.64257812 C7.11114079 17.84566166 7.06180493 20.04752582 7 22.25 C5.68 22.25 4.36 22.25 3 22.25 C2.34 22.58 1.68 22.91 1 23.25 C-2.375 23.625 -2.375 23.625 -6 23.25 C-8.5 21.0625 -8.5 21.0625 -10 18.25 C-9.93198585 15.39340556 -9.52628171 13.92117573 -7.765625 11.67578125 C-5.4983152 9.84487842 -3.67039513 9.54500177 -0.8125 9.0625 C0.08855469 8.90394531 0.98960937 8.74539063 1.91796875 8.58203125 C2.60503906 8.47246094 3.29210937 8.36289062 4 8.25 C3.67 6.93 3.34 5.61 3 4.25 C-0.3 4.25 -3.6 4.25 -7 4.25 C-7 3.26 -7 2.27 -7 1.25 C-4.38672515 0.37890838 -2.69288829 0.06120201 0 0 Z M-5.4375 14.25 C-5.953125 14.91 -6.46875 15.57 -7 16.25 C-6.34 17.57 -5.68 18.89 -5 20.25 C-0.8539119 20.59778172 -0.8539119 20.59778172 2.875 19.0625 C4.34781139 16.68963721 4.22223194 14.99086056 4 12.25 C-1.13725982 11.76510163 -1.13725982 11.76510163 -5.4375 14.25 Z " fill="#000000" transform="translate(929,467.75)"/>
<path d="M0 0 C0.680625 -0.02578125 1.36125 -0.0515625 2.0625 -0.078125 C4.63882934 0.35818884 5.38643677 1.22028801 7 3.25 C7.34057617 5.3347168 7.34057617 5.3347168 7.29296875 7.69921875 C7.28330078 8.54677734 7.27363281 9.39433594 7.26367188 10.26757812 C7.23853516 11.14865234 7.21339844 12.02972656 7.1875 12.9375 C7.16719727 14.27651367 7.16719727 14.27651367 7.14648438 15.64257812 C7.11114079 17.84566166 7.06180493 20.04752582 7 22.25 C5.68 22.25 4.36 22.25 3 22.25 C2.34 22.58 1.68 22.91 1 23.25 C-2.375 23.625 -2.375 23.625 -6 23.25 C-8.5 21.0625 -8.5 21.0625 -10 18.25 C-9.93198585 15.39340556 -9.52628171 13.92117573 -7.765625 11.67578125 C-5.4983152 9.84487842 -3.67039513 9.54500177 -0.8125 9.0625 C0.08855469 8.90394531 0.98960937 8.74539063 1.91796875 8.58203125 C2.60503906 8.47246094 3.29210937 8.36289062 4 8.25 C3.67 6.93 3.34 5.61 3 4.25 C-0.3 4.25 -3.6 4.25 -7 4.25 C-7 3.26 -7 2.27 -7 1.25 C-4.38672515 0.37890838 -2.69288829 0.06120201 0 0 Z M-5.4375 14.25 C-5.953125 14.91 -6.46875 15.57 -7 16.25 C-6.34 17.57 -5.68 18.89 -5 20.25 C-0.8539119 20.59778172 -0.8539119 20.59778172 2.875 19.0625 C4.34781139 16.68963721 4.22223194 14.99086056 4 12.25 C-1.13725982 11.76510163 -1.13725982 11.76510163 -5.4375 14.25 Z " fill="#000000" transform="translate(849,467.75)"/>
<path d="M0 0 C0.680625 -0.02578125 1.36125 -0.0515625 2.0625 -0.078125 C4.63882934 0.35818884 5.38643677 1.22028801 7 3.25 C7.34057617 5.3347168 7.34057617 5.3347168 7.29296875 7.69921875 C7.28330078 8.54677734 7.27363281 9.39433594 7.26367188 10.26757812 C7.23853516 11.14865234 7.21339844 12.02972656 7.1875 12.9375 C7.16719727 14.27651367 7.16719727 14.27651367 7.14648438 15.64257812 C7.11114079 17.84566166 7.06180493 20.04752582 7 22.25 C5.68 22.25 4.36 22.25 3 22.25 C2.34 22.58 1.68 22.91 1 23.25 C-2.375 23.625 -2.375 23.625 -6 23.25 C-8.5 21.0625 -8.5 21.0625 -10 18.25 C-9.93198585 15.39340556 -9.52628171 13.92117573 -7.765625 11.67578125 C-5.4983152 9.84487842 -3.67039513 9.54500177 -0.8125 9.0625 C0.08855469 8.90394531 0.98960937 8.74539063 1.91796875 8.58203125 C2.60503906 8.47246094 3.29210937 8.36289062 4 8.25 C3.67 6.93 3.34 5.61 3 4.25 C-0.3 4.25 -3.6 4.25 -7 4.25 C-7 3.26 -7 2.27 -7 1.25 C-4.38672515 0.37890838 -2.69288829 0.06120201 0 0 Z M-5.4375 14.25 C-5.953125 14.91 -6.46875 15.57 -7 16.25 C-6.34 17.57 -5.68 18.89 -5 20.25 C-0.8539119 20.59778172 -0.8539119 20.59778172 2.875 19.0625 C4.34781139 16.68963721 4.22223194 14.99086056 4 12.25 C-1.13725982 11.76510163 -1.13725982 11.76510163 -5.4375 14.25 Z " fill="#000000" transform="translate(781,467.75)"/>
<path d="M0 0 C1.32 0.33 2.64 0.66 4 1 C4.66 0.67 5.32 0.34 6 0 C13.10828025 -0.57324841 13.10828025 -0.57324841 16.2421875 1.44140625 C18.87346539 5.2713774 18.43395139 8.72196572 18.25 13.25 C18.23195313 14.09046875 18.21390625 14.9309375 18.1953125 15.796875 C18.14830798 17.86507395 18.07656724 19.93268441 18 22 C17.01 22 16.02 22 15 22 C14.93941406 20.78441406 14.87882812 19.56882812 14.81640625 18.31640625 C14.73201668 16.73175772 14.6473679 15.14712298 14.5625 13.5625 C14.52318359 12.76005859 14.48386719 11.95761719 14.44335938 11.13085938 C14.5945704 7.24760439 14.5945704 7.24760439 13 4 C10.66702567 3.95907063 8.33294775 3.95758277 6 4 C3.73150334 7.65172633 3.6104049 11.0127118 3.375 15.25 C3.30023438 16.51328125 3.22546875 17.7765625 3.1484375 19.078125 C3.09945313 20.04234375 3.05046875 21.0065625 3 22 C2.01 22 1.02 22 0 22 C0 14.74 0 7.48 0 0 Z " fill="#000000" transform="translate(464,468)"/>
<path d="M0 0 C0.87785156 0.01546875 1.75570312 0.0309375 2.66015625 0.046875 C4.9375 0.25 4.9375 0.25 6.9375 1.25 C6.6075 2.24 6.2775 3.23 5.9375 4.25 C2.6375 4.25 -0.6625 4.25 -4.0625 4.25 C-3.7325 5.57 -3.4025 6.89 -3.0625 8.25 C-1.01993023 9.52986195 -1.01993023 9.52986195 1.4375 10.375 C5.84356654 12.06213307 5.84356654 12.06213307 6.9375 14.25 C7.3125 17.1875 7.3125 17.1875 6.9375 20.25 C4.07590382 22.93274642 1.60844869 23.42996405 -2.1875 23.5 C-6.0625 23.25 -6.0625 23.25 -9.0625 22.25 C-9.0625 21.26 -9.0625 20.27 -9.0625 19.25 C-5.4325 19.25 -1.8025 19.25 1.9375 19.25 C2.2675 17.93 2.5975 16.61 2.9375 15.25 C2.22722656 14.90066406 1.51695312 14.55132812 0.78515625 14.19140625 C-0.13394531 13.73636719 -1.05304687 13.28132813 -2 12.8125 C-2.91652344 12.36003906 -3.83304688 11.90757812 -4.77734375 11.44140625 C-7.0625 10.25 -7.0625 10.25 -8.0625 9.25 C-8.52759279 3.9014329 -8.52759279 3.9014329 -6.86328125 1.5703125 C-4.46632482 -0.18710892 -2.94346911 -0.08670012 0 0 Z " fill="#000000" transform="translate(604.0625,467.75)"/>
<path d="M0 0 C0.66 0.33 1.32 0.66 2 1 C1.67 1.99 1.34 2.98 1 4 C-2.3 4 -5.6 4 -9 4 C-9 4.99 -9 5.98 -9 7 C-8.28972656 7.34933594 -7.57945313 7.69867188 -6.84765625 8.05859375 C-5.92855469 8.51363281 -5.00945312 8.96867187 -4.0625 9.4375 C-3.14597656 9.88996094 -2.22945312 10.34242188 -1.28515625 10.80859375 C1 12 1 12 2 13 C2.57623479 19.22333572 2.57623479 19.22333572 0.5625 21.9375 C-4.16551453 23.89789627 -9.19721257 23.60092914 -14 22 C-14 21.01 -14 20.02 -14 19 C-9.71 19 -5.42 19 -1 19 C-2.35407451 14.04501214 -2.35407451 14.04501214 -5.12890625 12.8828125 C-5.93199219 12.63273437 -6.73507812 12.38265625 -7.5625 12.125 C-10 11.1796875 -10 11.1796875 -12 10 C-13.0625 6.25 -13.0625 6.25 -13 3 C-9.28282996 -0.87878613 -5.02421098 -0.50436095 0 0 Z " fill="#000000" transform="translate(1137,468)"/>
<path d="M0 0 C0.66 0.33 1.32 0.66 2 1 C2 1.99 2 2.98 2 4 C-1.96 4 -5.92 4 -10 4 C-9.32135421 7.14066112 -9.32135421 7.14066112 -6.78515625 8.28125 C-5.43744141 8.88453125 -5.43744141 8.88453125 -4.0625 9.5 C0.78370979 11.67556468 0.78370979 11.67556468 3 15 C2.84946418 18.01071639 2.41319987 19.52068815 0.4375 21.8125 C-3.93529277 23.94283494 -8.41131305 23.52956232 -13 22 C-13 21.01 -13 20.02 -13 19 C-12.30132813 19.01160156 -11.60265625 19.02320313 -10.8828125 19.03515625 C-9.97273438 19.04417969 -9.06265625 19.05320312 -8.125 19.0625 C-6.76761719 19.07990234 -6.76761719 19.07990234 -5.3828125 19.09765625 C-2.9831415 19.16249257 -2.9831415 19.16249257 -1 18 C-2.38529462 14.5511936 -3.61371505 13.35649967 -7 11.875 C-9.56720838 10.7329698 -10.98199302 10.01800698 -13 8 C-13.375 5.5625 -13.375 5.5625 -13 3 C-9.7541657 -1.09257368 -4.78158917 -0.48000509 0 0 Z " fill="#000000" transform="translate(1165,468)"/>
<path d="M0 0 C1.19109375 -0.00386719 1.19109375 -0.00386719 2.40625 -0.0078125 C4.5 0.125 4.5 0.125 6.5 1.125 C6.5 2.115 6.5 3.105 6.5 4.125 C3.2 4.125 -0.1 4.125 -3.5 4.125 C-3.83 5.445 -4.16 6.765 -4.5 8.125 C-3.88511719 8.30675781 -3.27023437 8.48851562 -2.63671875 8.67578125 C-1.82847656 8.92714844 -1.02023437 9.17851562 -0.1875 9.4375 C1.01326172 9.80294922 1.01326172 9.80294922 2.23828125 10.17578125 C4.66149793 11.19277892 5.93432874 12.02049383 7.5 14.125 C7.4375 17.6875 7.4375 17.6875 6.5 21.125 C4.07787688 23.35335327 1.59811482 23.24278056 -1.5625 23.3125 C-5.5 23.125 -5.5 23.125 -8.5 22.125 C-8.5 21.135 -8.5 20.145 -8.5 19.125 C-4.87 19.125 -1.24 19.125 2.5 19.125 C2.83 17.805 3.16 16.485 3.5 15.125 C2.45199219 14.67060547 2.45199219 14.67060547 1.3828125 14.20703125 C0.47273438 13.78808594 -0.43734375 13.36914062 -1.375 12.9375 C-2.27992188 12.53144531 -3.18484375 12.12539063 -4.1171875 11.70703125 C-6.99416313 9.79690809 -7.65087804 8.43238245 -8.5 5.125 C-7.75 2.875 -7.75 2.875 -6.5 1.125 C-4.13386544 -0.05806728 -2.63219264 -0.00854608 0 0 Z " fill="#000000" transform="translate(359.5,467.875)"/>
<path d="M0 0 C0.99 0.33 1.98 0.66 3 1 C3.66 0.67 4.32 0.34 5 0 C12.10828025 -0.57324841 12.10828025 -0.57324841 15.2421875 1.44140625 C17.87346539 5.2713774 17.43395139 8.72196572 17.25 13.25 C17.23195313 14.09046875 17.21390625 14.9309375 17.1953125 15.796875 C17.14830798 17.86507395 17.07656724 19.93268441 17 22 C16.01 22 15.02 22 14 22 C13.93941406 20.78441406 13.87882812 19.56882812 13.81640625 18.31640625 C13.73201668 16.73175772 13.6473679 15.14712298 13.5625 13.5625 C13.52318359 12.76005859 13.48386719 11.95761719 13.44335938 11.13085938 C13.5945704 7.24760439 13.5945704 7.24760439 12 4 C9.36 4 6.72 4 4 4 C3.34 9.94 2.68 15.88 2 22 C1.34 22 0.68 22 0 22 C0 14.74 0 7.48 0 0 Z " fill="#000000" transform="translate(1245,468)"/>
<path d="M0 0 C0.99 0.33 1.98 0.66 3 1 C3.66 0.67 4.32 0.34 5 0 C12.10828025 -0.57324841 12.10828025 -0.57324841 15.2421875 1.44140625 C17.87346539 5.2713774 17.43395139 8.72196572 17.25 13.25 C17.23195313 14.09046875 17.21390625 14.9309375 17.1953125 15.796875 C17.14830798 17.86507395 17.07656724 19.93268441 17 22 C16.01 22 15.02 22 14 22 C13.93941406 20.78441406 13.87882813 19.56882812 13.81640625 18.31640625 C13.73201668 16.73175772 13.6473679 15.14712298 13.5625 13.5625 C13.52318359 12.76005859 13.48386719 11.95761719 13.44335938 11.13085938 C13.5945704 7.24760439 13.5945704 7.24760439 12 4 C9.36 4 6.72 4 4 4 C3.34 9.94 2.68 15.88 2 22 C1.34 22 0.68 22 0 22 C0 14.74 0 7.48 0 0 Z " fill="#000000" transform="translate(943,468)"/>
<path d="M0 0 C0.99 0.33 1.98 0.66 3 1 C3.66 0.67 4.32 0.34 5 0 C12.10828025 -0.57324841 12.10828025 -0.57324841 15.2421875 1.44140625 C17.87346539 5.2713774 17.43395139 8.72196572 17.25 13.25 C17.23195313 14.09046875 17.21390625 14.9309375 17.1953125 15.796875 C17.14830798 17.86507395 17.07656724 19.93268441 17 22 C16.01 22 15.02 22 14 22 C13.93941406 20.78441406 13.87882813 19.56882812 13.81640625 18.31640625 C13.73201668 16.73175772 13.6473679 15.14712298 13.5625 13.5625 C13.52318359 12.76005859 13.48386719 11.95761719 13.44335938 11.13085938 C13.5945704 7.24760439 13.5945704 7.24760439 12 4 C9.36 4 6.72 4 4 4 C3.34 9.94 2.68 15.88 2 22 C1.34 22 0.68 22 0 22 C0 14.74 0 7.48 0 0 Z " fill="#000000" transform="translate(863,468)"/>
<path d="M0 0 C0.66 0 1.32 0 2 0 C2 1.65 2 3.3 2 5 C3.98 5 5.96 5 8 5 C8 5.99 8 6.98 8 8 C6.02 8 4.04 8 2 8 C2.33 13.28 2.66 18.56 3 24 C4.98 24.33 6.96 24.66 9 25 C8.67 25.99 8.34 26.98 8 28 C2.48968706 28.3673542 2.48968706 28.3673542 0.3190918 26.73901367 C-1.28288089 24.62706633 -1.35212199 23.6107416 -1.29296875 20.98828125 C-1.28330078 20.23095703 -1.27363281 19.47363281 -1.26367188 18.69335938 C-1.23853516 17.90767578 -1.21339844 17.12199219 -1.1875 16.3125 C-1.16719727 15.11657227 -1.16719727 15.11657227 -1.14648438 13.89648438 C-1.11117089 11.93070033 -1.05736447 9.96526418 -1 8 C-1.99 8 -2.98 8 -4 8 C-3.67 7.01 -3.34 6.02 -3 5 C-2.34 5 -1.68 5 -1 5 C-0.67 3.35 -0.34 1.7 0 0 Z " fill="#000000" transform="translate(373,463)"/>
<path d="M0 0 C1.32 0.33 2.64 0.66 4 1 C4.66 0.67 5.32 0.34 6 0 C8.3329866 -0.04022391 10.66706666 -0.04320247 13 0 C12.67 0.99 12.34 1.98 12 3 C10.576875 3.12375 10.576875 3.12375 9.125 3.25 C5.99542804 3.64303991 5.99542804 3.64303991 4.84375 5.59375 C3.71105268 8.82403494 3.56460686 11.83707648 3.375 15.25 C3.30023437 16.51328125 3.22546875 17.7765625 3.1484375 19.078125 C3.09945312 20.04234375 3.05046875 21.0065625 3 22 C2.01 22 1.02 22 0 22 C0 14.74 0 7.48 0 0 Z " fill="#000000" transform="translate(825,468)"/>
<path d="M0 0 C1.32 0.33 2.64 0.66 4 1 C4.66 0.67 5.32 0.34 6 0 C7.99960012 -0.039992 10.00047242 -0.04346799 12 0 C12 0.99 12 1.98 12 3 C10.2984375 3.433125 10.2984375 3.433125 8.5625 3.875 C7.386875 4.24625 6.21125 4.6175 5 5 C3.47893366 8.04213267 3.62570662 11.28047572 3.4375 14.625 C3.39431641 15.33140625 3.35113281 16.0378125 3.30664062 16.765625 C3.20055249 18.51018537 3.09977111 20.25506697 3 22 C2.01 22 1.02 22 0 22 C0 14.74 0 7.48 0 0 Z " fill="#000000" transform="translate(524,468)"/>
<path d="M0 0 C0.99 0 1.98 0 3 0 C3 9.57 3 19.14 3 29 C2.01 29 1.02 29 0 29 C0 19.43 0 9.86 0 0 Z " fill="#000000" transform="translate(454,461)"/>
<path d="M0 0 C0.66 0 1.32 0 2 0 C2.04938628 4.23582327 2.08571263 8.47149465 2.10986328 12.70751953 C2.11992963 14.14895547 2.1335838 15.59037095 2.15087891 17.03173828 C2.17510012 19.10193934 2.18647641 21.17187076 2.1953125 23.2421875 C2.20578613 24.4885498 2.21625977 25.73491211 2.22705078 27.01904297 C2 30 2 30 0 32 C-3.125 32.125 -3.125 32.125 -6 32 C-6 31.01 -6 30.02 -6 29 C-4.35 29 -2.7 29 -1 29 C-0.67 19.43 -0.34 9.86 0 0 Z " fill="#000000" transform="translate(795,468)"/>
<path d="M0 0 C0.99 0 1.98 0 3 0 C3 7.26 3 14.52 3 22 C2.01 22 1.02 22 0 22 C0 14.74 0 7.48 0 0 Z " fill="#000000" transform="translate(1144,468)"/>
<path d="M0 0 C0.99 0 1.98 0 3 0 C3 7.26 3 14.52 3 22 C2.01 22 1.02 22 0 22 C0 14.74 0 7.48 0 0 Z " fill="#000000" transform="translate(616,468)"/>
<path d="M0 0 C0.66 0 1.32 0 2 0 C2 7.26 2 14.52 2 22 C1.34 22 0.68 22 0 22 C0 14.74 0 7.48 0 0 Z " fill="#000000" transform="translate(344,468)"/>
<path d="M0 0 C1.32 0 2.64 0 4 0 C4 1.32 4 2.64 4 4 C2.68 3.67 1.36 3.34 0 3 C0 2.01 0 1.02 0 0 Z " fill="#000000" transform="translate(794,461)"/>
<path d="M0 0 C1.32 0 2.64 0 4 0 C4 1.32 4 2.64 4 4 C2.68 3.67 1.36 3.34 0 3 C0 2.01 0 1.02 0 0 Z " fill="#000000" transform="translate(343,461)"/>
<path d="M0 0 C0.99 0 1.98 0 3 0 C3 1.32 3 2.64 3 4 C2.01 4 1.02 4 0 4 C0 2.68 0 1.36 0 0 Z " fill="#000000" transform="translate(1144,461)"/>
<path d="M0 0 C0.99 0 1.98 0 3 0 C3 1.32 3 2.64 3 4 C2.01 4 1.02 4 0 4 C0 2.68 0 1.36 0 0 Z " fill="#000000" transform="translate(616,461)"/>
</svg>
